<?xml version="1.0" encoding="utf-8"?>
<!-- Generator: Adobe Illustrator 21.0.0, SVG Export Plug-In . SVG Version: 6.00 Build 0)  -->
<svg version="1.1" id="Layer_1" xmlns="http://www.w3.org/2000/svg" xmlns:xlink="http://www.w3.org/1999/xlink" x="0px" y="0px"
	 viewBox="0 0 1000 1000" style="enable-background:new 0 0 1000 1000;" xml:space="preserve">
<style type="text/css">
	.st0{fill:#FFFFFF;}
</style>
<g>
	<g>
		<path class="st0" d="M178.1,633l-37.1-13.5l-0.8-2.6l23.6-31.4l-50.7,15.3l-4-13.1l69.7-21.1l4.6,15.1L160,612.5l36.6,12.7l4.6,15
			l-69.7,21.1l-4-13.1L178.1,633z"/>
		<path class="st0" d="M213.5,732.3c-16.1,9.8-38.2,10-51.7-11.7c-13.6-21.7-4.2-41.5,12-51.7c16.2-10.1,39.1-9.9,52.4,11.4
			C239.5,701.6,229.8,722.4,213.5,732.3z M180.8,680.5c-10,6.6-17.4,18.8-8.3,33.4s23.4,13.2,33.7,7c10.5-6.3,18.5-19.4,9.4-34
			C206.5,672.4,191.1,673.8,180.8,680.5z"/>
		<path class="st0" d="M285.3,753.5l9.8,9.6l-51.2,52l-6.1-6l-0.1,0.1l7.2-61.9l-34.4,35l-9.8-9.6l51.1-51.9l7.9,7.8l-6.2,57.2
			L285.3,753.5z"/>
		<path class="st0" d="M313.1,790.7l-19.4-12.5l6.7-10.5c17.7,11.4,32.6,21,50.4,32.4l-6.7,10.5l-19.4-12.5L292,848.9l-11.6-7.4
			L313.1,790.7z"/>
		<path class="st0" d="M381,891l-50.7-20c8.9-22.5,17.9-45.2,26.8-67.7l50.7,20l-4.9,12.4l-38-15l-6.2,15.6l36.7,14.5l-4.7,11.9
			L354,848.1l-6,15.3l38,15L381,891z"/>
		<path class="st0" d="M500.1,901.3c-8.2,6.6-18.1,9.1-28.6,8.2c-26.9-2.6-36.6-22.2-34.9-41c1.7-19,15.9-37.1,42.1-34.6
			c9.8,0.9,18.8,5.5,25.6,13.6l-9.9,7.9c-4.3-5.1-10.5-7.9-16.9-8.5c-17.5-1.7-26.3,10.7-27.3,22.8c-1,12,4.7,25.2,22.6,26.9
			c6.3,0.6,13.7-1.3,18.9-5.6L500.1,901.3z"/>
		<path class="st0" d="M572.8,889.2l-37.7,5.1l-4.3,14.5l-14.7,2l22.5-76.6l14.8-2l42.2,67.7l-14.8,2L572.8,889.2z M548,848.4
			l-9.2,32.5l26.8-3.7L548,848.4z"/>
		<path class="st0" d="M603.7,820.3l20.7,56.5l35.2-12.9l4.4,11.9l-48.1,17.6l-25-68.4L603.7,820.3z"/>
		<path class="st0" d="M707.6,852.6l-12.3,7.2l-62.9-48l13.3-7.7l47.5,38l-9.4-60.1l13.3-7.7L707.6,852.6z"/>
		<path class="st0" d="M774.5,783.3l-28.2,25.6l4.6,14.4l-11,10l-24.7-75.9l11.1-10.1l73.1,32l-11.1,10.1L774.5,783.3z M731,763.7
			l10.8,32l20-18.2L731,763.7z"/>
		<path class="st0" d="M849.9,709.2l-9.3,13.4l-32.1,3.5l-7.5,10.8l20,13.9l-7.8,11.3l-59.9-41.6c6.6-9.5,13.3-18.9,19.9-28.4
			c9.9-14,24.5-14.9,34.8-7.7c8.2,5.7,13.9,15.2,8.3,28.2l33-3.9L849.9,709.2z M771.7,716.6l19.1,13.3l11.9-17.2
			c5-7.2,2.3-13.6-2.4-16.9c-4.8-3.3-11.8-3.5-16.7,3.6L771.7,716.6z"/>
		<path class="st0" d="M857.5,692.4l-65.4-32l6-12.2l65.4,32L857.5,692.4z"/>
		<path class="st0" d="M860.9,578.1c18,5.5,32.8,21.9,25.6,46.4c-7.2,24.6-28.2,30.7-46.6,25.3c-18.4-5.4-33.4-22.6-26.3-46.8
			C820.7,579.1,842.7,572.5,860.9,578.1z M843.9,637c11.6,3.1,25.7,0.5,30.5-16c4.8-16.5-5.7-26.3-17.1-29.9
			c-11.7-3.7-26.8-0.9-31.7,15.5C820.7,623.1,832,633.8,843.9,637z"/>
	</g>
	<circle class="st0" cx="122" cy="510" r="21.5"/>
	<circle class="st0" cx="883.2" cy="510" r="21.5"/>
	<g>
		<path class="st0" d="M158.6,403.4l-3,13.7l-24.3,13.3l-2.4,11.1l20.4,4.5l-2.5,11.5L85.5,444c2.1-9.7,4.4-19.4,6.5-29
			c3.3-14.4,14.5-19.9,25.1-17.5c8.4,1.8,16,7.6,15.8,19.7l24.9-13.9L158.6,403.4z M98.8,434.9l19.6,4.3l3.9-17.5
			c1.6-7.3-2.6-11.6-7.5-12.6s-10.5,1.1-12.1,8.3L98.8,434.9z"/>
		<path class="st0" d="M157.5,326.1c14.8,6.6,25.6,22.2,16.8,42.3c-8.8,20.2-27.4,23.2-42.4,16.6c-15.1-6.6-26-22.9-17.4-42.7
			C123.1,322.6,142.6,319.4,157.5,326.1z M136.7,374.5c9.5,3.9,21.8,3.2,27.7-10.3c5.9-13.5-2-23-11.4-27.3
			c-9.6-4.4-22.8-3.7-28.7,9.8C118.5,360.2,126.9,370.5,136.7,374.5z"/>
		<path class="st0" d="M164.4,258.1l6.7-9.7l51.4,35.8l-4.2,6l0.1,0.1l-53.5,2.8l34.6,24.1l-6.7,9.7l-51.3-35.8l5.5-7.8l49.3-3
			L164.4,258.1z"/>
		<path class="st0" d="M250.5,210.3c11.2,11.2,15.4,29.4-0.3,44.6c-5.5,5.4-12.1,11.8-17.6,17.1l-43.6-44.9
			c5.5-5.4,12.1-11.8,17.6-17.1C222.1,195.1,239.6,199.4,250.5,210.3z M233.1,255.7l9.2-9c10.2-9.9,7-21.3-0.3-28.4
			c-7-6.8-17.9-9.8-27.6-0.3l-9.2,9L233.1,255.7z"/>
		<path class="st0" d="M310.3,192.8L283,210.9l2.1,12.8l-10.6,7.1l-11.3-67.6l10.7-7.1l58,36.5l-10.7,7.1L310.3,192.8z M275.8,170.5
			l5.1,28.6l19.3-12.9L275.8,170.5z"/>
		<path class="st0" d="M327,126.8l20.4,47.5l29.6-12.7l4.3,10l-40.4,17.4l-24.7-57.5L327,126.8z"/>
		<path class="st0" d="M388.8,104.1l12.7,50.1l31.2-7.9l2.7,10.6l-42.6,10.8L377.3,107L388.8,104.1z"/>
		<path class="st0" d="M493.4,139.2l-32.6,2.1l-4.6,12.1l-12.8,0.8L467.4,90l12.8-0.8l32.1,60.6l-12.8,0.8L493.4,139.2z
			 M474.7,102.7l-9.9,27.3l23.2-1.5L474.7,102.7z"/>
		<path class="st0" d="M608.7,120.1c-1,4.7-4.2,8.8-10.4,10.2c6.7,3.7,7.8,11.8,7,15.7c-2.8,13.7-14,15.9-26.7,13.3
			c-9.7-2-19.3-4-29.1-6L562.2,92c9.6,2,19.3,4,29.1,6C603.4,100.5,611.3,107.8,608.7,120.1z M563.2,144.9l17.7,3.7
			c4.7,1,11.8,0.8,13-5c1.1-5.5-5-9.8-9.7-10.8l-17.7-3.7L563.2,144.9z M568.5,119l17.7,3.7c7.3,1.5,10.3-1.1,11-4.6
			c0.6-2.8-0.7-8-8.1-9.5l-17.7-3.7L568.5,119z"/>
		<path class="st0" d="M658.3,173.3l-30.2-12.5l-9.5,8.9l-11.8-4.9l49.9-47.1l11.9,4.9l2,68.5l-11.9-4.9L658.3,173.3z M657.6,132.3
			l-20.9,20.2l21.5,8.9L657.6,132.3z"/>
		<path class="st0" d="M755.2,171.9l-19.7,30c-10.2,15.5-24.8,17.2-38,8.5c-12.6-8.2-18.2-22.9-7.9-38.6l19.7-30l9.8,6.4l-19.7,30
			c-6.2,9.4-4.1,18,4.1,23.3c8.1,5.3,16.4,2.9,22.2-6l19.7-30L755.2,171.9z"/>
		<path class="st0" d="M779.9,207.1l-14.4-13.6l7.4-7.8c13.1,12.4,24.2,22.9,37.4,35.4l-7.4,7.8l-14.4-13.6l-35.6,37.6l-8.6-8.1
			L779.9,207.1z"/>
		<path class="st0" d="M775.2,276.6l48.3-39.8l7.4,9l-48.3,39.8L775.2,276.6z"/>
		<path class="st0" d="M854.7,306.9c1.9-3.7,1.7-10.5-1.9-16.3c-4.6-7.4-10-9.1-13.9-6.6c-4.6,2.9-2.5,9.1,0.7,16
			c5.5,11.9,9.1,24-3.6,31.9c-11.8,7.4-23.4,0.1-30.8-11.8c-6.8-10.8-8.6-21.3-1.4-31.3l9.5,5.6c-4.4,6-3.1,13.7,0.9,20.2
			c3.9,6.3,9.8,10.8,15.6,7.2c5-3.1,3.8-9.6,0.2-17.2c-5.5-11.7-8.8-23.5,3.1-30.9c10.9-6.8,22.1,1.2,28.3,10.9
			c5.2,8.3,8.1,18.3,2.5,27.4L854.7,306.9z"/>
		<path class="st0" d="M880.3,348.7l-7.5-18.4l9.9-4c6.8,16.7,12.6,30.9,19.4,47.7l-9.9,4l-7.5-18.4l-48,19.6l-4.5-10.9L880.3,348.7
			z"/>
		<path class="st0" d="M867.3,442l-7.3-31.9l-12.7-2.6l-2.9-12.5l67.2,13.4l2.9,12.5l-54.7,41.3l-2.9-12.5L867.3,442z M900.3,417.6
			l-28.6-5.4l5.2,22.7L900.3,417.6z"/>
	</g>
	<path class="st0" d="M732.7,369.9c-4.4-27-16.6-52.9-35.6-72.7c-15.5-16-34.5-28.3-55.1-36.7c-27.5-11.6-57-17.6-86.6-20.5
		c-32.5-2.9-65.3-3.4-97.9-0.7c-48.9,4.1-99.9,15.6-138.5,47.6c-24.1,20.1-40.6,49-46.1,79.9c-7.3,38.2-1.1,77.5,9.9,114.4
		c11.4,38.4,28.6,75,48.2,109.9c27.9,48.6,61,94.3,99,135.5c15.7,16.6,31.8,33,50.4,46.3c8.1,5,17.1,12.2,27.3,9
		c16.9-6.7,30.4-19.3,43.6-31.3c15.7-15,30.5-30.8,44.4-47.5c28.5-34.6,54.8-71,77-109.9c24.4-42.3,44.4-87.4,55.6-135
		C734.8,429.2,738,399.2,732.7,369.9z M455.3,733.5c-4.6-4.5-9.2-9-13.4-14c0.4-14.7,0.2-29.4,0.1-44.1c4.5,0,9,0.1,13.5,0.3
		C455.1,695,455.6,714.3,455.3,733.5z M473.4,750.7c-4.3-4-9.5-7.4-12.6-12.5c-0.3-20.9,0-41.8-0.1-62.7c4.3,0,8.6,0,12.9,0.1
		C473.4,700.5,473.7,725.6,473.4,750.7z M491.5,763.6c-4.3-2.7-8.7-5.2-12.4-8.7c-1.1-2.3-0.5-5-0.7-7.4c0.1-24,0.1-48,0-71.9
		c4.3,0,8.7,0,13-0.1C491.5,704.8,491.5,734.2,491.5,763.6z M515,390h36.6c-12,80.3-24.5,160.6-36.6,241V390z M490.2,390v240
		c-12.2-80-24.8-160-37-240H490.2z M509.1,766.5c-4.4,0.8-8.9,0.7-13.3-0.2c-0.1-30.3-0.1-60.5,0.1-90.8c4.4,0,8.9,0,13.4-0.1
		C509.1,705.8,509.5,736.1,509.1,766.5z M527.5,754.1c-4.5,3.4-9.1,6.7-14,9.5c-0.2-29.4-0.1-58.8-0.1-88.2c4.7,0,9.3,0,14,0
		C527.6,701.7,527.6,727.9,527.5,754.1z M545.5,737.2c-3.8,5.5-9.5,9.3-14.4,13.8c-0.5-25.2-0.2-50.3-0.2-75.5c4.8,0,9.7,0,14.6-0.1
		C545.7,696,545.8,716.6,545.5,737.2z M562.6,719.4c-3.5,6-9.4,10.3-14,15.6c-0.4-19.8,0.1-39.6-0.3-59.4c4.8,0,9.6,0,14.4-0.1
		C562.7,690.1,563.1,704.7,562.6,719.4z M660.2,401.3c-10-1-19.3-5.3-29.3-6.1c-5.1-2.5-9.9-5.6-13.9-9.7c-3.1-0.1-6.2-0.1-9.2-0.2
		c-2.2,11.5-3.1,23.3-5.6,34.7c-4,15.2-4.9,31-7.2,46.6c2.9,0,5.9,0,8.9-0.1c3.7-4.4,8.8-7.5,14.2-9.3c9.3-3.2,19.1-5.3,28.9-5.6
		c5.4,12.3,5.6,26.4,2.3,39.3c-1,2.8-1.8,7-5.8,6.2c-14.1-2-29.7-4.2-40.2-14.7c-3.3,0-6.6,0-9.8,0c-2.8,26.9-4.8,53.9-5.2,81
		c2.2,0,4.4-0.1,6.7-0.1c4.2-4.4,9.5-7.5,15.3-9.3c9.2-2.8,18.7-5.5,28.4-4.9c5,13.9,5.7,29.9-0.1,43.7c-2.6,2.1-6.4,1-9.4,0.8
		c-11.5-2.2-23.6-4.5-32.8-12.2c-2.2-2.1-5.4-1.9-8.1-2.5c-0.1,14,0.1,27.9,0.3,41.9c0.4,4.1-2.7,7.3-4.7,10.5
		c-7.1,10.1-13.9,20.4-21,30.4c-4.8-0.1-9.6-0.1-14.4-0.1c0.1-26.9,0.2-53.7,0-80.6c3.6,2.6,7.5,5.9,12.3,5.4
		c8.8,0.4,16.5-8.5,14.6-17.2c-0.5-9.2-11.5-15.4-19.8-11.9c-5.9,1.8-9.9,7.8-9.7,13.9c-0.2,30.1-0.1,60.2,0,90.4
		c-4.7,0-9.5,0-14.1,0.1c6.3-59.5,13.1-118.8,19.3-178.3c4.6,5.1,12,7.9,18.5,4.8c10.1-3.9,11.9-19.6,2.9-25.6
		c-7.7-6.7-21.2-1.9-23.5,7.9c-6.2,63.8-14.1,127.5-20.4,191.3c-4.5-0.1-8.9-0.1-13.3,0v-3.9c8.2-57.1,17.4-114.1,25.7-171.2
		c5.4-32.1,9.5-64.5,15-96.6h21.4v-24.8H515v-56.3h-24.8v56.3H428V390h20.7c10.3,69.2,21.4,138.3,31.9,207.6
		c3.3,19.9,5.8,39.9,9.5,59.8v4c-4.1,0.2-8.1,0.2-12.2,0.4c-7.2-59-13.4-118.1-20.2-177.1c-1.1-7.3,0.4-16.4-6.1-21.5
		c-5.5-5.1-14.6-4.8-20,0.2c-7.5,6.2-6,19.8,2.8,24.1c5.8,3.7,13.1,2,18.2-2c7.2,58.7,12.9,117.6,20.3,176.3c-4.1,0-8.3,0-12.4,0.1
		c-0.2-29-0.7-58.1-1-87.1c-0.2-5-0.8-10.6-4.7-14.2c-7.1-7.3-21.5-4.3-24.4,5.7c-3.3,7.5,1.1,16.7,8.7,19.4c5,2,10.3,0.1,15-1.8
		c-0.1,26,1,52,1.2,78c-4.4-0.1-8.8-0.1-13.1-0.1c-7.9-11.6-16.1-23.1-24-34.7c-2.6-3.4-1.9-7.9-1.8-11.9
		c0.7-11.9,0.6-23.9,0.6-35.9c-2.3,0-4.6,0-6.9,0.1c-7.8,9-20.2,11.3-31.3,13.6c-4.1,0.6-8.9,2.6-12.6-0.2
		c-5.4-13.6-4.4-28.8-0.6-42.7c5.3-2.6,11.1-0.5,16.5,0.5c10,2.4,21,4.9,28.2,12.9c1.6-0.1,4.8-0.1,6.4-0.2c-1-27-2-54-5.2-80.8
		c-3.3,0-6.6-0.1-9.9-0.2c-11.5,11.1-28.6,14.4-44.1,14.3c-5.5-14.2-5.2-30.3-0.1-44.5c11-0.4,21.9,2.6,32.2,6.4
		c4.8,1.5,8.2,5.3,12.3,8c2.7,0.3,5.4,0.2,8.1,0.2c-3.2-27.3-7.3-54.5-12.9-81.3c-3.2,0.1-6.5,0.2-9.7,0.2
		c-9.3,9.4-22.8,11.5-35.1,14.1c-3.1,0.6-6.2,0.1-9.2-0.2c-4.4-13.7-5.3-29,0-42.6c2-3.5,6.2-1.7,9.3-1.5
		c11.4,2.2,23.7,4.3,32.8,12.2c2.3,2.5,5.7,1.9,8.7,2c-3.5-15.6-6.8-31.2-11.2-46.6c40.2-2.7,73-30.6,112.4-36.6
		c20.2-2.3,39.5,6.2,57.7,13.9c22.6,9.2,44.8,21.1,69.5,23c-2.6,15.7-8.8,30.5-11.1,46.3c2.2,0,4.5,0,6.8-0.1
		c7.6-9.2,19.6-12,30.7-14.1c4.4-0.6,9.4-3.7,13.4-0.3c1.4,3.1,2.2,6.4,3.2,9.6C665.2,377,666.8,390.3,660.2,401.3z"/>
</g>
</svg>
