<?xml version="1.0" encoding="utf-8"?>
<!-- Generator: Adobe Illustrator 21.0.0, SVG Export Plug-In . SVG Version: 6.00 Build 0)  -->
<svg version="1.1" id="Layer_1" xmlns="http://www.w3.org/2000/svg" xmlns:xlink="http://www.w3.org/1999/xlink" x="0px" y="0px"
	 viewBox="0 0 1280 886" style="enable-background:new 0 0 1280 886;" xml:space="preserve">
<style type="text/css">
	.st0{fill:#880807;}
</style>
<g>
	<g>
		<path class="st0" d="M488.2,136.5c3.4-4.6,6.3-9.7,10.2-14c3.2-0.3,6.4-0.1,9.6-0.1c-4.3,4.8-9,9.3-13.4,14.1
			C492.5,136.5,490.3,136.5,488.2,136.5z"/>
		<path class="st0" d="M74.8,719c11.6,10.7,22.5,22,33.7,33.1c0.2-10.8,0-21.5,0.1-32.2c1.2,0,3.6,0,4.8,0c0,14.5,0.1,29-0.1,43.5
			c-11.4-10.8-22.4-22-33.7-33c0.2,10.8,0.1,21.5,0,32.3c-1.7-0.1-3.5-0.1-5.2-0.1C74.6,748,74.2,733.5,74.8,719z"/>
	</g>
	<g>
		<path class="st0" d="M118.3,149.6c7.4-7.4,18.2-10.5,28.6-9.8c10.4,0.5,19.9,5.6,27.4,12.6c-1.7,1.7-3.5,3.4-5.2,5.1
			c-7.1-6.6-16.5-11.6-26.4-10.9c-14.3,0.3-27.6,12.7-27.6,27.2c-0.3,15.3,13.8,28.6,29,28.3c12.3,1.3,24.7-7.5,26.6-19.9
			c-7-0.1-14,0-21-0.1c0-2.3,0-4.6,0.1-6.9c9.5,0,19-0.1,28.6,0.1c-0.2,8.6-2.3,17.7-8.6,24c-8.7,9.3-22.7,11.1-34.6,8.4
			c-12.9-2.7-23.8-13.6-26.3-26.6C106.3,170,109.9,157.6,118.3,149.6z"/>
	</g>
	<g>
		<path class="st0" d="M279.1,159.1c-2.8-9.1,4.9-19.2,14.3-19.3c8-0.9,14.4,4.9,18.8,10.8c-1.9,1.4-3.7,2.8-5.6,4.2
			c-3.2-3.5-6.5-8.1-11.7-8c-5.2-0.6-10.2,4.3-9.1,9.5c1.2,6.4,7.4,9.6,12.1,13.3c6.4,4.9,13.7,10.5,15.1,19
			c2.1,10.9-8.7,21.3-19.5,20.2c-8.7,0-15.2-6.9-19.1-14c1.9-1.1,3.8-2.3,5.8-3.4c3.2,4.6,6.9,10.8,13.3,10.6
			c6.2,0.7,12.2-4.2,12.4-10.5c-0.1-6.7-6.1-11-10.7-15C289.2,171.4,281.1,167.3,279.1,159.1z"/>
	</g>
	<g>
		<path class="st0" d="M626.7,163.7c4.2-14.2,18.6-24.2,33.2-24c11.5-0.6,22.8,4.7,29.8,13.7c-1.8,1.4-3.5,2.9-5.3,4.3
			c-4.9-5.6-11.3-10.1-18.8-10.9c-11.3-1.9-23.8,3.3-29.6,13.4c-5.9,9.8-4.9,23.2,2.5,32c11.1,13.8,34.8,13.3,45.6-0.7
			c1.9,1.4,3.8,2.8,5.6,4.2c-13.1,16-40.3,17.9-54.9,3C625.9,189.9,623.3,175.7,626.7,163.7z"/>
		<path class="st0" d="M491.6,141.5c2.3,0,4.5,0,6.8,0c0,21.9,0,43.7,0,65.6c-2.3,0-4.5,0.1-6.8,0.1
			C491.6,185.3,491.6,163.4,491.6,141.5z"/>
		<path class="st0" d="M1073.5,141.5c12-0.1,24,0,36,0c0,2.2,0,4.4,0.1,6.5c-4.9,0-9.8,0-14.6,0c0.1,19.7,0,39.4,0,59.1
			c-2.4,0-4.8,0-7.1,0c-0.1-19.7,0-39.4,0-59.1c-4.7,0-9.5,0-14.2,0C1073.5,145.8,1073.5,143.7,1073.5,141.5z"/>
	</g>
	<g>
		<path class="st0" d="M1034.3,146.6c4.2-6.5,13.4-8.5,20.3-5.5c4.6,1.8,7.6,5.8,10.7,9.5c-1.9,1.4-3.8,2.8-5.7,4.2
			c-3.3-3.7-7.1-8.7-12.7-7.9c-5.3-0.2-9.9,5.9-7.8,10.8c1.6,5.3,6.8,8.2,11,11.4c6.7,5,14.2,10.7,15.9,19.4
			c2,10.9-8.5,21.3-19.3,20.4c-8.8,0.2-15.4-6.7-19.3-13.9c1.9-1.2,3.8-2.4,5.8-3.6c3.2,5.4,7.9,11.8,15.1,10.6
			c7.5,0,13.3-8.9,9.3-15.6c-5.1-8.5-14.6-12.8-21.4-19.7C1031.3,161.4,1030.1,152.7,1034.3,146.6z"/>
	</g>
	<g>
		<path class="st0" d="M89.2,141.4c2.2,0,4.4,0.1,6.5,0.1c0,21.8,0,43.7,0,65.5c-2.2,0-4.4,0-6.5,0
			C89.2,185.2,89.2,163.3,89.2,141.4z"/>
	</g>
	<g>
		<path class="st0" d="M190.2,141.5c2.2,0,4.4,0,6.6,0c0,19.7,0,39.4,0,59.1c8.5,0,17,0,25.5,0c0,2.2,0,4.4,0,6.5
			c-10.7,0-21.4,0-32.1,0C190.2,185.2,190.2,163.3,190.2,141.5z"/>
	</g>
	<g>
		<path class="st0" d="M232.5,141.5c12.6,0,25.2,0,37.8,0c0,2.2,0,4.4,0,6.5c-10.3,0-20.6,0.1-30.9-0.1c-0.4,6.8-0.4,13.5,0,20.3
			c10.2,0,20.3,0,30.5,0c0,2.3,0,4.6,0,6.9c-10.2,0-20.4,0-30.7,0c-0.1,8.3,0,16.7,0,25c10.2,0.1,20.4,0,30.7,0c0,2.3,0,4.6,0,6.9
			c-12.4,0-24.9,0-37.3,0C232.4,185.2,232.4,163.4,232.5,141.5z"/>
	</g>
	<g>
		<path class="st0" d="M325.9,141.5c2.3,0,4.6,0,7,0c0,21.9,0,43.8,0,65.7c-2.3,0-4.6,0-6.9,0C325.9,185.2,325.9,163.4,325.9,141.5z
			"/>
	</g>
	<g>
		<g>
			<path class="st0" d="M373,140.8c2,1.8,3.2,4.2,4.2,6.6c9.1,20,18.8,39.8,27.7,59.8c-2.4,0-4.9,0-7.3,0
				c-3.4-7.1-6.8-14.3-10.2-21.4c-9.4,0-18.7,0-28,0c-3.7,7.1-6.7,14.4-10.4,21.4c-2.5,0-5-0.1-7.5-0.1
				C352.1,185,362.4,162.8,373,140.8z M362.5,179c7.3,0,14.6,0,21.9,0c-3.7-7.7-7.3-15.4-11-23.1C369.8,163.5,366.2,171.3,362.5,179
				z"/>
		</g>
		<g>
			<path class="st0" d="M513.5,141.5c9.7,0.6,21-2.4,29.2,4.5c7.6,6.9,6,20.1-2.8,25.3c5.7,2.4,11.3,6.6,12.6,13
				c2.6,10.4-5.5,21.1-15.9,22.5c-7.7,0.8-15.5,0.2-23.2,0.3C513.6,185.2,513.4,163.4,513.5,141.5z M520,148c0,6.9,0,13.9,0,20.9
				c4.9-0.2,10,0.2,14.6-1.7c6-2.7,8.1-11.5,3.3-16.2C532.8,147.1,525.9,148.3,520,148z M519.9,175.4c0,8.3,0,16.5,0,24.8
				c5.5,0,11.1,0.4,16.6-0.4c7.8-1.5,12.3-11.7,7.1-18.1C538.1,174.7,528,175.5,519.9,175.4z"/>
		</g>
		<g>
			<path class="st0" d="M723.8,149.6c1.4-3.2,3-6.3,5-9.1c10.9,22,20.9,44.4,31.3,66.6c-2.5,0-4.9,0-7.3,0
				c-3.4-7.1-6.9-14.1-10.1-21.3c-9.4-0.2-18.9,0-28.3-0.1c-3.4,7.1-6.7,14.2-10.1,21.3c-2.6,0.1-5.1,0.1-7.7,0.2
				C705.6,188,714.8,168.9,723.8,149.6z M728.6,155.9c-3.7,7.7-7.4,15.4-10.9,23.1c7.3-0.1,14.5,0,21.8-0.1
				C735.9,171.2,732.3,163.5,728.6,155.9z"/>
		</g>
	</g>
	<g>
		<g>
			<path class="st0" d="M440.3,141.5c9.7,0.7,21.1-2.4,29.2,4.4c7.8,6.8,6.1,20.2-2.7,25.4c5.1,2,10.2,5.3,12,10.8
				c4.3,10.3-3.3,22.4-14,24.4c-8.1,1.2-16.4,0.3-24.5,0.5C440.4,185.2,440.3,163.4,440.3,141.5z M446.9,148c0,6.9,0,13.9,0,20.9
				c6.5-0.3,15.2,0.8,19-5.8c3.4-4.6,1.4-11.9-4-13.8C457.1,147.8,451.9,148.1,446.9,148z M446.9,175.4c0,8.3,0,16.5,0,24.8
				c5.5,0,11,0.4,16.4-0.3c7.4-1.4,12.2-10.8,7.8-17.3C465.9,174.7,455.2,175.5,446.9,175.4z"/>
		</g>
	</g>
	<g>
		<path class="st0" d="M565.6,141.5c2.2,0,4.4,0,6.6,0c0,19.7,0,39.4,0,59.1c8.4,0,16.8,0,25.2,0c0,2.2,0,4.3,0,6.5
			c-10.6,0-21.2,0-31.8,0C565.6,185.2,565.6,163.3,565.6,141.5z"/>
	</g>
	<g>
		<path class="st0" d="M606.9,141.5c2.2,0,4.4,0,6.6,0c0,21.9,0,43.8,0,65.7c-2.2,0-4.4,0-6.6,0
			C606.9,185.2,606.8,163.3,606.9,141.5z"/>
	</g>
	<g>
		<g>
			<path class="st0" d="M795.5,141.5c9.6,0.6,20.7-2.3,28.9,4.2c8,6.7,6.5,20.3-2.3,25.7c6.7,2.5,12.9,8.2,12.7,15.8
				c1.2,9.4-6.5,18.2-15.6,19.6c-7.9,0.9-15.8,0.2-23.7,0.4C795.5,185.2,795.4,163.4,795.5,141.5z M802.3,148c-0.1,7-0.1,14,0,21
				c4.4-0.1,8.7-0.5,13.1-0.8c5.5-2.7,9.2-9.2,6.1-15.1C817.5,146.5,808.8,148.5,802.3,148z M802.3,175.3c-0.1,8.3,0,16.6,0,24.8
				c7.4-0.6,16.6,2.2,22.4-3.9c5.2-4.9,3.9-14.2-2.2-17.8C816.3,175.2,809,175.4,802.3,175.3z"/>
		</g>
	</g>
	<g>
		<g>
			<path class="st0" d="M864.7,158.7c3-6.1,5.4-12.6,9.2-18.3c10.9,22,21,44.4,31.3,66.7c-2.5,0-4.9-0.1-7.4-0.1
				c-3.4-7.1-6.7-14.4-10.4-21.4c-9.3,0.1-18.6,0-27.9,0.1c-3.3,7.1-6.8,14.1-10,21.3c-2.6,0.1-5.1,0.1-7.7,0.2
				C849.3,191,857.1,174.9,864.7,158.7z M862.7,179c7.3,0,14.6,0.1,21.8-0.1c-3.6-7.7-7.1-15.3-10.8-22.9
				C869.9,163.6,866.4,171.3,862.7,179z"/>
		</g>
	</g>
	<g>
		<path class="st0" d="M915.4,141.5c2.3,0,4.5,0,6.8,0c0.3,16.2-0.3,32.5,0.3,48.7c0.8,12.1,18.8,16.2,26,7.1
			c3.6-4,3.4-9.7,3.8-14.7c0.1-13.7,0-27.4,0-41c2.2,0,4.3,0,6.5,0c0,14.2,0,28.4,0,42.6c0,6.6-1.1,13.9-6.1,18.7
			c-9,9.1-25.9,7.7-33.5-2.5c-3.6-4.6-3.6-10.7-3.8-16.3C915.4,169.9,915.4,155.7,915.4,141.5z"/>
	</g>
	<g>
		<path class="st0" d="M968.4,141.5c12,0,24.1,0,36.1,0c0,2.2,0,4.4,0,6.5c-4.8,0-9.6,0-14.4,0c0,19.7,0,39.4,0,59.1
			c-2.4,0-4.7,0-7,0c0-19.7,0-39.4,0-59.1c-4.9,0-9.8,0-14.6,0C968.4,145.8,968.4,143.7,968.4,141.5z"/>
		<g>
			<path class="st0" d="M643.3,279.9c10.5-1.2,20.9,0.7,31.4,0.9l0,1.4c-10.7,0.3-21.6,0.5-32.1,2.7c0,1.2-0.1,3.5-0.2,4.7
				c0.9-0.1,2.6-0.2,3.5-0.3c13-2.3,28.3-1.4,38.2,8.5c3.8,2.6,5.4,6.8,7,10.9c-1.2,0.2-2.9,3-3.7,1c-5-8.5-14.8-12-24-13.8
				c-4.4,0.2-10.7-2.4-13.5,2.2c4.1,3.8,8.5,7.6,10.5,13c4.6,7.5,0.2,16.9,3.5,24.8c1,10.3,5.6,20.2,12.6,27.9
				c8.3,7.9,18.9,13.1,30.2,15c7.3,2.4,15.2,0.8,22.7,2.6c0.4-0.1,1.1-0.3,1.4-0.5c2.5,0.8,5.1,1.4,7.7,2.1
				c16.1,3.1,30,14.8,35.3,30.4c0.4,2.1,0.9,4.1,1.7,6.1c0,0.9,0.1,2.5,0.2,3.4c4.5-2.6,9.5-4.3,14.7-3.7c8.9-0.7,18.2,1.1,25.1,7.1
				c-0.1,10.2-1.3,20.3-1.8,30.4c-1.9,0-3.8,0-5.6,0c-0.3-5.2-0.4-10.4-0.2-15.6c-4-7.7-12.6-12.1-21.2-10.8
				c-6.8,3.3-11.5,10.1-12.5,17.6c-0.4,4.6-0.1,9.2,0.4,13.7c0.6,1.5,1.1,3.1,1.6,4.7c3.8,5.5,10.5,7.1,16.5,9.1
				c6.8,1.7,14.4,2.7,19.4,8.1c7.1,6.6,8.1,16.7,8.9,25.8c0.5,16.8-4.1,36-18.8,45.9c-6.9,5-15.6,4.3-23.6,4.1
				c-7.6-0.1-14.1-4.6-20.5-8.2c-0.4-11.5,1.4-22.9,1.5-34.4c1.9,0,3.7,0,5.6,0c-0.1,5.6,0,11.2,0.4,16.8c3.6,9.7,13.6,16.4,24,15
				c5.1-1.8,9.5-5.4,11.5-10.6c3.9-9.7,5.1-21.8-1-30.9c-2.7-3.2-6.8-4.6-10.5-5.9c-8.2-2.2-17.2-3.8-23.5-9.9
				c-6.8-8.4-8.4-19.7-7.8-30.1c-0.4-13.4,3.8-27.6,14.5-36.3c-3.6-6.2-5.3-13.5-10.3-18.8c-7.2-9.3-19-13.8-30.1-16.3
				c-3.9-0.3-7.9-0.5-11.7-1.2c-0.2,0.1-0.7,0.3-0.9,0.4c-6.5-2.4-13.8-0.2-20.3-2.6c-13.2-3.1-25.4-10.8-33.4-21.8
				c-3.7-4.6-5.6-10.3-8.3-15.5c-0.5-2-0.9-4-1.5-5.9c-1.1-7.2-0.4-14.5-0.7-21.7c-1.3-3.1-2.6-6.2-3.8-9.3
				c-5.5-7.9-14.1-13.1-23.3-15.4c0.8-1.8,1.9-3.4,3.1-5c-0.3-0.6-0.9-1.7-1.2-2.2c1.3-1.4,2.6-2.8,3.9-4.2
				c-12.6,3.4-25.6,5.9-37.9,10.7c-17.1,6.8-33.3,15.9-47.4,27.7c-2.2,1.6-3.4,4-4.7,6.3c0,2.3,0.1,4.7,0.2,7
				c1.2,3.6,2.4,7.2,4.7,10.2c10.9-15.1,24.4-28.4,40-38.9c1.1,0.5,3.3,1.6,4.4,2.1c-15,13.1-28.6,28.2-38.1,45.9
				c-4.5,5.1-6.8,11.4-9.2,17.7c-4.3,9.3-7.3,19.2-10,29.1c-3.3,13.6-5.2,27.6-5.1,41.6c3.8,4.6,9.9,6.6,14.6,10.1
				c7.3,4.3,14.9,7.9,22.7,11.1c3,1.2,3.9,4.5,4.3,7.4c1.2,2.7,2,5.6,2.6,8.5c-7.5-1.4-14.5-4.2-21.7-6.5
				c-7.2-3.2-14.6-6.2-21.5-10.1c1.3,6.7,2.1,13.5,4,20.1c7.4,27.6,21.9,53.3,41.8,73.7c4.9,5.8,12.8,6.9,19.6,9.5
				c7.2,2.9,14.8,4.1,22.2,6.2c1,0,3,0.1,4,0.2c-8-12.5-15.3-25.7-20.2-39.8c-3-7.1-5.2-14.5-7.2-21.9c-2.8-10.1-3.6-20.5-6.2-30.6
				c-0.9-4.2-0.3-8.6-0.2-12.9c-1.4-27.6,1.9-55.4,9.9-81.8c-14.6-2-28.3-8-41.4-14.8c2.6-3.3,3.1-9.5,7.4-10.6
				c11.3,7.1,23.8,11.9,36.3,16.4c1.1-2.1,1.9-4.3,2.6-6.6c8.3-21.9,18.8-42.9,32.4-62l2.5-1.7c-3.8,5.6-5.5,12.2-8.4,18.2
				c-3.2,8.3-6.1,16.6-8.9,25c-3.6,9.8-5.6,20.2-9.2,30c13.7,3.2,27.5,6.3,41.5,7.6c5.7,2.1,11.9,0.7,17.8,2
				c11.2,1.7,22.7,0.1,33.8,1.9c-6.7,2.9-14,0.5-20.8,2.4c-10.9,0.1-21.9,0.9-32.8-0.6c-12.6-0.6-25.3-1.5-37.6-4.1
				c-1.2-0.1-2.4-0.2-3.6-0.2c-2.2,13-5.1,25.9-5.9,39.1c-0.2,0.7-0.7,2-0.9,2.6c-0.9,13.3-0.6,26.7-0.6,40
				c0.2,4.7-0.2,9.5,1.2,14.1c-1.1,2.2-0.9,4.6-0.7,7c2,3.6,1.3,7.8,1.8,11.7c2,11.9,4.4,23.8,7.8,35.4c2.7,8.3,5.3,16.8,8.8,24.8
				c1.3,3.7,2.9,7.3,4.9,10.8c3.8,0.2,7.8-0.4,11.2,1.5c15.4,0.8,31,0.9,46.4,0c3.8-1.6,8.1-1.6,12.1-2.4c-0.4,0.5-1.2,1.5-1.6,1.9
				c-10.5,3.7-21.5,5.7-32.4,7.6c-10.9,0.9-21.9,0.4-32.8,0.2c-10-2.1-20.4-2.9-30.2-6c-3.4-0.9-6.8-1.9-10.1-3
				c-14.4-4.4-27.7-11.4-40.7-18.9c13.3,10,27.8,18.7,43.4,24.8c2.5,1,5.1,1.9,7.7,3c18.8,6.3,38.4,10.8,58.3,11.3
				c5.6,1.5,11.5,0.6,17.2,0.9l-0.1,1.3c-23.2,2.6-46.9,1.2-69.5-4.7c-6-1.9-12-3.5-17.7-6c-15.1-6-29.6-13.7-42.4-23.7
				c-9.1-6.3-16.4-14.7-24.2-22.5c-11.6-13.9-22.1-29.1-28.3-46.3l-0.7-1.2c-2.4-7.8-5.4-15.4-6.7-23.4c-4.3-19.7-3.9-40.3-0.6-60.1
				c2.8-10,4.9-20.2,9.4-29.6c16.2-39.2,49-70.3,87.7-86.9c4.9-2,9.8-4,14.8-5.6c11.3-3.2,22.7-6.5,34.4-7.4
				C635.8,280.9,639.7,281,643.3,279.9z M499.3,410.1c5,9.5,11.9,17.8,19.7,25.1c0.2-5.3-0.7-10.9,1.3-16
				c1.3-11.4,4.3-22.6,8.1-33.5c0.5-1.4,1.1-2.9,1.6-4.3c2.8-7.2,6.6-13.9,10.4-20.7c-3.8-4.4-7.2-9.2-8.9-14.8c0-1.2,0-3.6,0-4.8
				C514.6,360.6,503.8,384.9,499.3,410.1z M497.7,437.1c-0.4,0.8-1.2,2.5-1.6,3.3c1.9,5.4,0.9,11.1,1.3,16.6
				c0.6,9.6,2.7,19.1,5,28.4c3.2,9.8,5.9,20.1,12.4,28.3c15.4,20.3,37,35.1,59.8,46c-20.7-18.9-37.9-42-47.3-68.5
				c-2.7-7.2-4.4-14.7-6.1-22.1c-0.4-4-0.8-8.1-2.2-11.9C510.9,451.8,503.8,444.7,497.7,437.1z"/>
		</g>
	</g>
	<g>
		<path class="st0" d="M1013.3,141.5c2.1,0,4.3,0,6.4,0c0,21.9,0,43.7,0,65.6c-2.2,0-4.3,0-6.4,0.1
			C1013.1,185.3,1013.1,163.4,1013.3,141.5z"/>
	</g>
	<g>
		<g>
			<path class="st0" d="M1142.3,144.6c0.6-1,2.5-5.3,3.5-2.6c10.5,21.5,20.2,43.5,30.6,65.1c-2.5,0-4.9,0-7.4,0
				c-3.7-7-6.5-14.5-10.6-21.2c-9.2-0.4-18.5,0-27.7-0.1c-3.6,6.8-6.3,14.1-10.2,20.8c-2.2,1.2-5.2,0.4-7.6,0.8
				C1122.4,186.3,1132.6,165.5,1142.3,144.6z M1144.8,155.9c-3.7,7.7-7.3,15.4-11,23.1c7.3,0,14.6,0.1,21.9,0
				C1152,171.3,1148.4,163.5,1144.8,155.9z"/>
		</g>
		<path class="st0" d="M445.9,603.3c7.4,0.5,14.6-2,22-1.8c13.7,0,27.4,0,41,0c3.7,0.2,7.6,0,11.2,1.4c3.3,0.3,6.5,0.6,9.8,0.9
			c11,2.2,21.8,5.3,32.5,8.9c22.4,9,43.4,22.1,60,39.9c5.4,5.1,10.3,10.7,15.7,15.8c-1.4,0-3.1,0.8-4.3-0.4
			c-7.3-5.4-13.4-12.3-20.9-17.3c-15.4-12-32.2-22.1-50.5-29.1c-1.5-0.5-3-1.1-4.4-1.7c-8.6-3.1-17.6-5.1-26.5-7.2
			c-14.3-2.1-28.7-3.8-43.1-4c-8.3,1-16.6-0.1-24.8,1.4c-6.6,0.9-13.6-0.7-20,1.7c-17.2,1.3-34.3,4-51.2,7.1
			c-2.4,0.3-4.7,0.5-7.1,0.9c-2.8,1.3-5.8,1.4-8.8,1.7c-9.2,2.3-18.6,3.9-27.9,5.7c-4.9,1-9.7,2.2-14.6,3.2
			c-8.9,2.4-18,3.6-26.8,6.2c-2.3,0.3-4.6,0.6-6.9,0.9c-9.2,2.7-18.9,3.8-28.2,6.2c-5.3,0.7-10.5,2-15.8,2.7
			c-46.6,9.2-94.2,13.8-141.7,10.9c-6.1-1.4-12.6,0-18.5-2.2c-4.6-0.6-9.6,0.5-13.8-2c9.8-0.6,19.6,0.2,29.4,0.1
			c2.8,0,5.7-0.1,8.3,1.3c7.2,0.3,14.3,0.3,21.5,0c4-2,8.5-1,12.7-1.2c15.8,0.4,31.4-2.1,47.1-3.6c9.9-0.9,19.6-3.8,29.6-4.1
			c2.8-1.1,5.8-1.4,8.8-1.7c9.8-1.8,19.6-3.6,29.4-5.6c11.8-2.7,23.8-4.7,35.5-7.7c2.5-0.4,5-0.7,7.3-1.8c1.8-0.3,3.7-0.6,5.6-0.9
			c13.5-3.9,27.5-5.9,41.2-9.4c11.7-2.2,23.2-5.4,35-6.7C410.8,607.5,428.5,605.5,445.9,603.3z"/>
	</g>
	<g>
		<g>
			<path class="st0" d="M705.1,231.2c-0.5-16.5,22.1-26.2,34.9-17.1c2.1,1.6,2,4.5,2.5,6.8c-3,0.3-6.6-0.8-9,1.6
				c-5.7,4.8-9.6,11.3-13.3,17.7c5.2-0.1,10.2-3.3,9.2-9.2c1.9,1.8,3,4.2,2.1,6.8c-2.8,3.8-7.8,4.1-12.2,4.4
				c-6.1,10-13.2,20.2-23.5,26.3c-3.8,2.5-8.3,2.3-12.6,2.3c-2.4-1.8-5.5-3.4-6.5-6.4c-3.7-10.9,0-23.9,9-31.1
				c0.6,0.6,1.7,1.7,2.2,2.3c-3.6,4.4-7.1,9.1-8.3,14.7c-1.4,5.6-1.6,12.5,3.1,16.7c4.7,3.4,10.4,0,14.1-3.4
				c6.9-6.4,11.8-14.6,16.7-22.6C709.6,239,705,236.1,705.1,231.2z M709.9,229.4c-1.3,4.2,1.1,7.9,4.9,9.5
				c6.3-8.9,13.2-20,24.9-21.9c-3.1-2.3-6.7-4.7-10.7-3.9C720.1,213.9,710.7,219.9,709.9,229.4z"/>
		</g>
	</g>
	<g>
		<path class="st0" d="M262.9,216.6c7.7-2.7,16.4-4.5,24.3-1.6c-0.7,0.1-2.1,0.2-2.8,0.3c-15.3-1.2-30.2,6.3-40.5,17.3
			c-3.4,4.1-6.9,9-6.4,14.6c0.6,5,6.8,5,10.6,4.1c6.3-2.3,10.3-8.5,11.7-14.9c1.2,2.1,2,4.6,0.5,6.8c-3.5,6.5-10.7,10.9-18.1,10.8
			c-3.6-0.2-7.3-2.4-8.2-6.1c-1.2-5.7,1.8-11.4,5.4-15.6C245.6,225.2,254,220,262.9,216.6z"/>
	</g>
	<g>
		<path class="st0" d="M284.4,215.4c0.7-0.1,2.1-0.2,2.8-0.3c3.8,1.1,5.5,5.9,3.7,9.3c-3.7,7.9-9.8,14.3-14.8,21.4
			c3.7,0.1,7.4,0.1,11.2,0.6c-3.7,2.4-8.2,0.8-12.3,1.5c-6,6.2-10.6,13.6-15.3,20.8c0.8,0,2.3,0,3.1,0c-3.1,2.1-6.4,3.8-10.2,3.9
			c3.6-9.5,10.8-17,16.9-24.9c-3,0.4-6.1,0.7-9.1,0.9c2.3-4,7-2.6,10.8-2.8c5-7.1,10.6-13.7,14.7-21.4
			C287.7,221.4,286.1,218.1,284.4,215.4z"/>
	</g>
	<g>
		<g>
			<path class="st0" d="M592.1,227.6c1.5-2.2,3.8-0.6,5.7,0c-6.9,10.2-15.3,19.5-20.5,30.7c-1.1,1.9-1.4,5.9,1.9,5.3
				c7-1.1,10.8-8.2,16.8-11.3c-3.7,5.9-9.4,10.7-15.9,13.1c-5.4,1-7.6-5.1-7.1-9.5c-2.8,3.9-6.3,7.9-11.1,9.2
				c-4.1,0.3-5.7-4-5.6-7.4c-3.2,3-6.2,6.7-10.5,8c-4.5,0.4-7.1-4.1-6.5-8.1c-5.3,4.5-12,9.1-19.3,7.9c-3.2-0.7-3.2-4.5-4.2-6.9
				c-3,3.2-6.6,8.3-11.7,6.6c-1.3-1.3-3-2.8-2.6-4.9c0.9-6,4.8-10.8,7.6-16c-8.1,6.1-13.7,14.8-20.7,22c-3.8-4.4,0.3-9.6,1.8-13.8
				c-5.4,5.8-11.4,12.1-19.4,13.9c-4.1,0.5-7.4-2.3-8.2-6.3c-3.8,2.9-8.2,5.3-13.1,3.7c-2.9-7.3,2.7-14,6.2-20
				c-7.7,4.8-14.5,11.3-18.6,19.5c-0.5,1.8-3,3.7-4,1.2c0.7-7.6,5.3-14,8.2-20.8c-8.9,5.8-15,14.5-21.8,22.4c-0.7-0.7-2.2-2.2-2.9-3
				c1.1-3.3,2.4-6.6,3.7-9.9c-3.8,4.2-7.3,9.1-12.5,11.7c-4.6,1.9-7.6-3.3-7.1-7.3c-3.6,3.4-8,10.1-13.8,7.5c-3.1-1.2-2.7-4.7-3-7.3
				c-4,3.1-7.8,7.1-13,7.9c-4.7,0.5-5.1-5-6.4-8.2c-3.6,3.5-7.4,9.3-13.2,7.9c-3.2-0.5-3.8-4.1-4.2-6.7c-2.4,2.6-4.9,5.4-8.3,6.8
				c-3.2,0.9-6.6-1.9-6-5.2c0.6-5.9,4.8-10.6,7.3-15.8c-8,6.1-13.6,14.5-20.3,21.8c-3.9-3.7-0.3-8.4,1-12.4
				c-4.6,3.6-8.4,8.3-13.5,11.3c-2.3,1.2-6,1-6.9-1.8c-0.6-2.3,0.5-4.6,0.6-6.8c-4.6,4.2-9,10.9-16.2,9.3c-1.1-3.3-0.6-6.7,0.7-10
				l-2.9,0.9c4.6-5.8,8.9-12.1,15-16.5c0.8,0.4,2.3,1.2,3.1,1.6c-5.4,6.8-11.9,13.4-13.9,22.1c9.7-2.3,14.7-11.9,21-18.8
				c2.1-2.1,4.4-5.8,7.9-4.4c2,2.7-1.4,4.8-2.7,6.8c-3.8,4.9-9.4,9.7-8.8,16.5c11.5-4.3,17-16.1,25.7-23.9c3.5,0.4,1,3.7,0.2,5.2
				c-2.4,3.7-4.8,7.5-6.7,11.5c7.7-5.6,13.3-15,22.9-17.5c0.5,0.5,1.4,1.4,1.9,1.8c-3.2,7.7-12.7,13-11.3,22.4
				c10.7-4.4,15-16.2,24.6-22.1c3.6-2.4,9.3-4.9,12.8-1c4.1-5,6.9-14.3,14.9-12.9c-5.8,9.8-14.9,17.5-19.8,27.9
				c-0.9,1.8-1.1,3.9-1,5.8c2.5,4.2,7.4,0.7,10.2-1.4c9.8-7.1,15.6-21.8,29.4-21.6c1.8,2,3.9,3.5,6.3,4.7c-3,6.2-8.6,11.2-9.8,18.1
				c0.1,3.7,4.3,0.7,5.5-0.6c7.5-5.3,12-13.5,18-20.3c0.9-0.2,2.6-0.5,3.5-0.7c-1.7,6.3-5.9,11.5-8.8,17.3
				c6.3-5.7,12-12.4,19.5-16.8c1.5-1.4,5.4-1,4.8,1.6c-1.5,4-4,7.6-5.9,11.4c6.1-4.7,11.5-11.8,19.5-12.7c0.5,0.5,1.5,1.5,1.9,2
				c-4,6.3-10.5,11.6-11,19.5c5.3,0.7,10.2-2.5,12.8-6.9c4-6.3,9.2-13,16.8-14.6c2.8-0.8,4.5,1.5,6.2,3.3
				c-3.2,7.8-11.6,11.9-19.6,12.8c-0.2,2.2-0.9,4.6-0.1,6.8c1.8,1.5,4.2,1.3,6.2,0.4c10.6-5,16.5-15.7,24.7-23.5
				c3.9,0.1,1,3.8,0.2,5.3c-2.4,3.6-4.7,7.3-6.6,11.3c6.5-5.3,11.9-11.9,19.1-16.3c1.8-1.2,6.9-1.9,5.3,1.8
				c-3.9,6.9-12.3,12.4-10.9,21.3c8-3.7,13.6-10.8,17.2-18.7c-1.6-1.1-3.1-2.3-4.6-3.5c2.7-1.1,5.5-1.6,8.3-2
				c1.9-2.3,3.9-4.6,5.9-6.8c0.9,0.3,2.7,1,3.6,1.3c-1.1,2-2.2,4-3.4,6c5.6,0,11.3-0.4,16.9,0.3c-6.8,2.4-14.4,1.5-21.1,4
				c-3.1,3-5.1,6.9-7.1,10.7c-1.1,2.5-3,5.2-1.8,8c7.2,2.7,14.6-2.9,19.7-7.7c6.8-7.2,13.5-17.3,24.7-16.9c0.6,0.8,1.7,2.3,2.2,3.1
				c0.9,0.3,2.7,0.9,3.6,1.2c-2.7,6.2-7.8,11-9.8,17.4c0.3,1,0.8,2.9,1.1,3.8c6.4-3.6,11.3-9.1,15.7-14.9
				C581.7,241.9,585.3,233.5,592.1,227.6z M353.2,255.6c-1.7,2.3-4.4,7.9,0.4,8.3c4.6-2.2,7.9-6.3,11.1-10.1c3-3.9,6.5-7.4,8.3-12
				C364.5,242.5,358.2,249.3,353.2,255.6z M398.3,246.6c-5.3,4.4-11.5,9.7-11.1,17.3c2.4-0.2,5.1-0.2,6.9-2.1
				c6.4-5.4,10.9-12.7,15.7-19.6C405.4,241.7,401.5,243.7,398.3,246.6z M468.9,255c6.5-1.2,14.7-5,15.2-12.5
				C477.5,244.3,472.7,249.6,468.9,255z M548.5,251.4c-2.9,3.2-6.6,7.1-5.5,11.8c2.3,1.4,4.9-0.2,6.7-1.7
				c6.5-5.4,10.8-12.8,15.7-19.5C558.4,241.5,553.2,246.9,548.5,251.4z"/>
		</g>
	</g>
	<g>
		<g>
			<path class="st0" d="M775.8,240.7c3.1-4.4,5.7-9.4,10.2-12.7c1.2,0.1,3.6,0.2,4.8,0.3c-6.4,9.3-14.8,17.2-19.9,27.5
				c-1.4,2.6-0.6,5.5-0.2,8.2c3.4-0.4,6.7-1.4,9.4-3.7c4.5-2.9,6-8.5,9.7-12.1c3.6-3.6,8-7.9,13.6-7.5c3.8,0.1,4.1,4.8,2.1,7.2
				c-4.3,5.3-11,8.2-17.7,9c-0.7,3.1-1.1,8.5,3.6,7.8c12.5-3.5,17.9-16.7,27.9-23.8c0.6,0.6,1.8,1.7,2.4,2.3c4-1,9.5-3,12.5,0.9
				c3.6,4.1,0,9.9-3.1,13.1c-6,6.4-16.8,11.8-24.5,5.1c-3.4,5.5-6.4,11.9-4.3,18.5c-7.9-5.3-2.2-15.5,1.7-21.5
				c-4.9,3.2-10.4,8.6-16.8,6.5c-2.9-0.6-3.6-3.7-4.4-6.1c-3.9,2.7-8.3,7.4-13.5,5.3c-2.2-2-2.3-5.1-3-7.8
				c-3.7,3.5-7.7,9.6-13.6,8.1c-3.2-0.7-3.9-4.1-3.8-6.9c-3.4,3.3-7.6,9.1-13,6.5c-4.3-7.5,3.2-14.8,6.3-21.2
				c-7.9,6.5-14.1,14.7-20.6,22.5c-5.1-3.7,0-9.3,1.4-13.6c-2.5,2.5-4.9,5.2-8,6.9c5.4-6.8,10.5-13.8,16.8-19.8c0.3,0.8,1,2.3,1.3,3
				c-2.8,4.9-6.2,9.5-8.5,14.7c6.1-5.5,11.8-11.6,18.7-16.3c1.8-1.5,4.3-1,6.5-1.3c-1.8,8.9-13.4,13.9-11.2,24
				c10.9-4.7,15-17,25.2-22.7C767.4,239,772.5,237.2,775.8,240.7z M754.8,255.5c-1.8,2.2-4.3,8.3,0.4,8.1
				c8.7-4.8,13.9-13.9,19.7-21.6C766.2,241.9,759.9,249.3,754.8,255.5z M789.5,255.1c6.6-1.4,14-5.1,15.5-12.4
				C798.1,243.9,793.1,249.5,789.5,255.1z M821.4,246c-5.3,4.1-9.9,9.2-13.4,15c3,1.3,6.4,3.2,9.7,1.7c7.4-2.7,15-9.4,13.5-18.1
				C827.9,244.3,824.2,243.7,821.4,246z"/>
		</g>
	</g>
	<g>
		<g>
			<path class="st0" d="M922.6,228.3c1.5-1.4,5.9-0.4,3.7,2.2c-6.1,8.2-13.4,15.5-18.1,24.6c-1.6,2.6-1,5.7-1,8.5
				c5.5,0.8,9.7-3,13.5-6.4c5-4.2,6.3-11.4,11.9-15c1.2,0.1,3.5,0.3,4.7,0.5c-3.8,6.6-10.2,11.7-12.2,19.2c-1.2,3,3.2,3,4.7,1.6
				c9.3-3.8,11.6-14.8,19.8-19.9c3.7-3.1,9.9-4.5,12.6,0.5c-3.3,7.8-11.6,12.1-19.7,12.8c-0.2,2.3-0.4,4.6-0.5,7
				c6.1,2.7,11.3-2.5,15.6-6.1c6-5,9.9-12,15.7-17.1c3.9-0.4,1.3,3.7,0.4,5.1c-2.5,3.7-4.8,7.5-6.7,11.5c6.4-5.4,11.9-12,19.2-16.4
				c1.9-1.3,6.8-1.8,5.3,1.8c-4,6.8-12.2,12.4-10.9,21.2c8.2-3.6,13.6-10.9,17.2-18.9c-1.6-0.8-3.1-1.6-4.6-2.4
				c2.1-2.4,5.3-2.6,8.3-2.8c2.5-3,5-8.3,9.8-5.9c-1.2,2.2-2.4,4.3-3.7,6.4c5.6,0,11.2-0.4,16.8,0.3c-6.9,2.2-14.2,2-21.2,3.8
				c-3.6,5.1-7.3,10.4-9.2,16.5c-0.5,2.5,2.4,3.8,4.4,3.4c6.3-1,12.7-4.2,15.9-9.9c3.1-5,7.2-9.5,12.4-12.3c2.7-1.4,6.8-2,8.9,0.9
				c0.5,2.5-0.7,5.1-2.4,6.8c-4.5,4.2-10.3,6.9-16.4,7.4c-0.2,2.4-0.2,4.8-0.2,7.2c2,0.2,4.2,0.9,6.2-0.1c6.9-3,11.7-9.1,17-14.2
				c-0.6,4.1-4.2,6.7-7,9.5c-5.1,4.6-12.4,9.6-19.3,5.5c-0.4-1.8-0.9-3.5-1.2-5.3c-5.1,3.4-11.1,7.4-17.6,6.1
				c-3.2-0.9-3.2-4.6-3.4-7.2c-3.4,3.2-6.9,8.5-12.2,7c-1.3-1.3-3.1-2.9-2.6-4.9c0.8-6,4.8-10.9,7.6-16.1
				c-8.1,5.8-13.4,14.4-20.2,21.5c-5.1-3.3,0.2-9.2,1.4-13.3c-5.5,5.7-11.3,12.1-19.4,13.9c-4.1,0.5-7.6-2.3-8.3-6.3
				c-4.3,2.7-8.9,8-14.4,5.3c-1.6-2.1-1.2-4.9-1.3-7.4c-4.2,3.2-8.4,8.1-14.2,7.5c-3.9-1.3-3.8-6.1-3.5-9.5c-3.2,3.7-6.6,8-11.4,9.5
				c-4.1,0.9-7-2.7-7.3-6.5c-2.3,2.2-4.5,4.5-7.3,6c-2.7,1.5-6.7-0.2-6.7-3.5c-0.4-5.7,3.2-10.7,6.6-15c-1.2-0.7-2.4-1.4-3.5-2.1
				c3.2-1.5,6-3.8,9.5-4.8c1.8-0.3,3.3,1.9,2,3.3c-4.1,6.6-11.7,12.2-10.9,20.9c10.7-4.2,15-15.9,24.4-21.9
				c3.8-2.7,9.4-4.9,13.5-1.5C915.9,236.2,918.4,231.4,922.6,228.3z M894.7,251.8c-3.3,3.2-5.8,7.4-5.3,12.1
				c2.1-0.6,4.6-0.8,6.2-2.5c6.3-5.6,11.4-12.5,16.2-19.4C904.6,241.6,899.4,247.2,894.7,251.8z M943.8,255
				c6.4-1.2,14.8-5,15.1-12.5C952.4,244.4,947.6,249.6,943.8,255z M1018.3,255c6.5-1.3,14.3-5.1,15.3-12.4
				C1026.9,244.2,1022,249.5,1018.3,255z"/>
		</g>
	</g>
	<g>
		<path class="st0" d="M685.6,233.2c4.2-1.9,9.6-3.4,13.8-0.7c4.2,3.3,3,9.7,1.1,14c-2.7,5.4-7.4,11.9-14.2,11.3
			c-5.9-1.3-5.3-9.6-1.4-12.8c-0.3,2.5-0.8,5-0.9,7.4c1.9,3.5,6.6,2.6,9,0.2c4.9-4.5,8.7-11.7,6.1-18.3c-3.3-3.5-8-0.9-11.3,1.2
			C687.3,235,686.2,233.8,685.6,233.2z"/>
		<path class="st0" d="M936.7,233.6c2.3,0.3,5.4-0.6,6.7,2c-0.3,2.1-1.5,3.2-3.7,3.3C937.1,238.4,937.3,235.6,936.7,233.6z"/>
		<g>
			<path class="st0" d="M625,250.3c4.4-5.3,10.4-10.6,17.9-9.5c1.4,3.7,0.5,7.7-2.9,9.9c-4.2,3.6-9.5,5.7-14.9,6.2
				c-1.3,3.1-0.9,8.9,3.7,7.8c8.4-2.2,13.3-10.1,19.8-15.2c-3.4,7.2-10,12.5-17.1,16c-4,2.1-9.6,0.8-11.3-3.6
				C619.8,257.4,622.4,253.5,625,250.3z M626.4,254.7c6.5-0.9,14.6-4.9,15-12.3C635,244.4,630.1,249.3,626.4,254.7z"/>
		</g>
		<path class="st0" d="M589,308.4c8.8-5.6,17.9-10.8,27.8-14.2c-7.5,5.8-16.2,9.9-23.4,16.3C592.3,310,590.1,308.9,589,308.4z"/>
		<path class="st0" d="M784.6,719.8c9.4,0.1,18.8-0.1,28.2,0.1c0,1.1,0,3.2,0,4.2c-7.9,0-15.7,0-23.5,0c0,4.4,0,8.8,0.1,13.2
			c7.7,0,15.4-0.4,23.1,0.2c0.1,1,0.3,3,0.4,4c-7.9,0-15.7,0-23.6,0c0,5.5,0,11.1,0,16.6c7.8,0,15.6,0,23.4,0c0,1.1,0,3.4,0,4.5
			c-9.4,0-18.7,0-28.1,0C784.5,748.3,784.3,734.1,784.6,719.8z"/>
	</g>
	<g>
		<g>
			<path class="st0" d="M842.4,245.1c3.3-2.9,7.8-5.5,12.3-4c2.5,2.3,1.2,6.1-0.9,8.2c-4.4,4.3-10.3,6.9-16.4,7.5
				c-1.3,3.2-0.7,8.9,4,7.7c11.9-3.9,18.1-15.9,26.6-24.1l1.9,0.5l0.3,1.7c-2.7,4.9-6.1,9.3-8.3,14.5c3.7-3.3,7.5-6.6,10.7-10.5
				c0.7,0.6,1.4,1.1,2.2,1.7c-6.4,4.8-10.6,11.7-15.7,17.6c-5.6-2.8-0.5-8.6,0.8-12.7c-5.5,4.8-10.6,10.6-17.9,12.7
				c-4.4,1.7-10.8-2.2-9.1-7.4C834.3,253.2,838.3,248.9,842.4,245.1z M838.9,255c6.4-1.3,14.5-5.1,15.1-12.5
				C847.5,244.4,842.3,249.2,838.9,255z"/>
		</g>
	</g>
	<g>
		<path class="st0" d="M758.8,270.3c0.6,0.5,1.8,1.6,2.4,2.1c-0.5,1.6-1,3.1-1.5,4.7c-0.8,1.5-1.6,2.9-2.3,4.4
			c-3.7,2.3-7.8,3.6-11.9,4.9c-5.7,0.2-11.4-0.1-17.1,0.6c-2,0.9-4.1,1.3-6.2,1.8c-4.4,2.2-9.2,4.5-11.8,8.9
			c-1.2,2.5-2.1,5.1-3.2,7.6c-0.5,1.8-1,3.6-1.4,5.4c6.5-4.6,13.3-9.2,21.1-11.1c15.1-3.7,31.2,1.2,43.9,9.7
			c10.5,8.5,25.5,14.9,38.8,8.9c0,0.7,0,2.3,0,3c-0.9,0.5-2.7,1.6-3.6,2.1c-5.5,2.6-11.6,4.6-17.7,3.5c-0.3,0.1-1,0.3-1.4,0.4
			c-0.7-0.4-2-1.1-2.7-1.5c-10.1-0.9-16.4-9.7-25.1-13.9c-3.8-1.7-7.8-3.1-11.8-4.5l-0.8-0.4c-4.4-3-9.5-1.8-14,0.4
			c-6.2,2.1-12.6,3.9-18.2,7.3c-2.9,1.9-5.5,4.3-8.5,6.2c-0.4,1-1.1,2.9-1.5,3.8c-4.6-1.9-4.8-7.5-7.4-11.1c-0.1-3.9-0.1-7.7,0-11.6
			c0.8-1.5,1.6-2.9,2.4-4.4c1.4-2.4,3-4.6,4.5-6.9c5.6-3.8,11.3-7.9,17.9-9.8c8.2-2.9,17-1.3,25.5-1.9c1.5-0.7,3.1-1.3,4.7-1.8
			c1.5-0.9,2.9-1.8,4.4-2.7C756.9,273.2,757.8,271.7,758.8,270.3z"/>
	</g>
	<g>
		<path class="st0" d="M747,294.9c6.6-3.7,14-6.3,19-12.3c0.8,1.1,1.7,2.2,2.6,3.3c-2.7,4.4-6.3,8.7-11.2,10.9
			C753.8,298.1,750.3,296.1,747,294.9z"/>
		<path class="st0" d="M758.2,603.1c14.5-2.8,29.3-1.1,44-1.6c7.6,0.4,15.6-1.2,22.9,1.5c5.2,0.3,10.5,0.2,15.7,0.8
			c4.7,1.8,10,0.9,14.8,2.1c10.8,2,21.8,3.3,32.4,5.9c22.3,3.4,44.1,9.3,66.2,13.8c5.3,1.4,10.7,2.3,15.9,3.9
			c1.8,0.3,3.6,0.6,5.5,0.9c11.1,2.7,22.4,4.9,33.7,7.2c16.5,3.5,33.1,6.9,49.8,8.8c15.4,3.4,31.4,4.5,47.1,5.9
			c10.7,2,22-0.7,32.5,2.2c8.9,0.2,17.9,0.6,26.8-1.1c10.5-0.1,21-0.9,31.5-0.1c-4,2.1-8.6,1.4-12.9,1.9c-5.4,2.1-11.3,0.7-16.9,1.8
			c-7.4,1.4-15,0.3-22.4,1.2c-10.7,0.9-21.4-0.8-32.1-0.4c-5.9,0.2-11.6-1.3-17.4-1.3c-3.8-0.3-7.9,0.4-11.4-1.4
			c-4.9-0.4-9.9,0.4-14.5-1.5c-3.3-0.4-6.6-0.7-9.9-1c-11.8-2.3-23.8-3.2-35.5-6.2c-14.7-2.5-29.4-5.5-44-8.8
			c-15.7-2.6-31-7.1-46.6-9.9c-9.3-2.6-19-3.3-28.2-6.2c-16.8-2.4-33.4-6.1-50.4-7.8c-1.9-0.1-3.7-0.5-5.4-1.1
			c-3.8-0.3-7.5-0.4-11.2-0.8c-7.7-2.6-16.2-0.4-24.1-2.2c-7.9-0.6-15.9-0.4-23.8-1c-13.4,0.7-26.8,1.8-40.1,4.1
			c-9,1.9-17.8,4.4-26.5,7.2c-5.1,2.4-10.5,4.2-15.6,6.4c-16.6,7.5-31.2,18.5-45.5,29.5c-5.9,4.4-10.7,11-17.8,13.5
			c4.1-7.5,11.3-12.5,16.8-18.9c7.2-7.5,15.6-13.9,23.9-20.1c12.3-7.1,24.4-14.7,38.1-18.7C734.6,607.1,746.5,604.8,758.2,603.1z"/>
	</g>
	<g>
		<path class="st0" d="M732.3,307.6c4.5-2.2,9.6-3.4,14-0.4C741.7,307.3,737,307.4,732.3,307.6z"/>
	</g>
	<g>
		<path class="st0" d="M768.4,329.6c1.9-0.5,3.6-0.2,5.3,0.9c6.1,0.7,12.6,1.4,18.6-0.6c2.4-0.9,4.9-0.8,7.4-0.7
			c-3.7,6.3-11.4,7.5-18,7.7c-0.1,4-4.5,5.5-7.6,6.7c-6.6,1.2-14.5,0.2-18.6-5.7c8,0.2,16,0.3,24-0.2
			C775.4,335.8,770,334.1,768.4,329.6z"/>
	</g>
	<g>
		<path class="st0" d="M741.8,343.9c-0.4-2.4,1.8-2.2,3.4-2.5c6.4,4.3,14.7,0.3,21.2,3.6c-5,5.7-13.4,3.7-20,3.3
			C744.9,346.8,743.2,345.5,741.8,343.9z"/>
	</g>
	<g>
		<path class="st0" d="M364.8,373.7c1.6-0.1,3.2-0.3,4.7-0.4c0.1,1.1,0.4,3.2,0.5,4.2c-9.6,10.1-18.6,20.6-27.6,31.3
			c-1.3-1.6-3-2.9-3.7-4.8c1.3-5.5,4.9-10,7.2-15.1c2.2-4.1,3.4-8.9,6.5-12.5C356.4,374.9,360.8,375,364.8,373.7z"/>
	</g>
	<g>
		<path class="st0" d="M782.7,383.4c1-1,2.1-2.1,3.2-3.1c6.8,2.1,14.3,4.5,18,11.1c-1,1.5-1.2,4.5-3.8,3.7
			C796.2,388.8,789,386.6,782.7,383.4z"/>
	</g>
	<g>
		<path class="st0" d="M772.2,391.2c0-3.3,4.1-2.1,5.5-0.8c3.6,2.2,6.5,5.1,9.4,8.1c0.3,1,1,2.8,1.3,3.8c-0.8,1.9-1.6,3.9-2.4,5.8
			C781.2,402.6,778.2,395.7,772.2,391.2z"/>
	</g>
	<g>
		<path class="st0" d="M256.2,419.6c10.9-1,22.9-0.7,31.6,6.9c-0.6,10.1-1.3,20.2-1.9,30.4c-1.9,0-3.7,0-5.6,0
			c-0.6-5.1-0.3-10.3-0.7-15.4c-3-8.1-12.4-12.1-20.7-11c-12.6,5.4-15,21.2-11.7,33.1c3,9.2,13.9,10.8,22,12.9
			c5.4,1.4,11.1,2.9,15.1,7.1c3.6,3.1,5.1,7.7,6.9,12c1.1,5.6,1.5,11.3,2.2,16.9c-0.7,5.1-1.3,10.2-1.7,15.3
			c-0.7,1.9-1.3,3.9-1.8,5.9c-3.5,9.6-9.4,19.1-19.1,23.5c-4.6,2.4-9.9,1.9-14.8,2.9c-3.4-0.6-6.9-0.9-10.3-1.2
			c-5.3-2.1-10.6-4.4-15.3-7.7c-0.9-7.3,0.2-14.7,0-22.1l1.2-0.2c1.9-0.3,3.8-0.6,5.7-1c0.2,1.9,0.4,3.8,0.5,5.7
			c3.5,9.8,13.7,16.2,24.1,14.9c5.7-2,9.7-6.6,12.2-11.9c2.7-9.6,4.2-21-1.9-29.6c-2.7-3-6.6-4.5-10.4-5.8c-8.5-2.2-18-4-24.2-10.7
			c-6.3-8.3-7.7-19.2-7.4-29.3c0.1-11.7,2.7-24.3,11.2-33C245.4,423.9,250.6,420.9,256.2,419.6z"/>
		<path class="st0" d="M425.1,421.4c5.6-2.9,11.9-1.9,18-2c7,0,13.4,3.2,19.1,7.1c-0.1,3.1,0.2,6.4-1.2,9.4
			c-0.2,6.9-0.5,13.8-0.6,20.7c-1.8,0.1-3.6,0.3-5.4,0.4c-3.1-6.6,1.4-15.4-4.6-20.6c-2.5-3-6.1-4.5-9.7-5.8
			c-3.6,0.1-7.6-0.5-10.8,1.5c-6,3.5-8.1,10.7-9.9,16.9c-0.3,5.9,0.3,12,2.7,17.4c2.2,4.2,6.8,5.8,10.9,7.6c8.2,2.6,17.6,3,24.2,9.1
			c6.9,5.8,8.3,15.3,9.2,23.8c1.5,6.7-0.7,13.4-1.2,20c-2.8,13.6-10.9,28-25.1,32c-12.5,2.1-27.3,1-36.7-8.6
			c0.2-11.1,1.9-22.1,1.6-33.2c1.8,0,3.6,0,5.4,0c0,3.6,0,7.2,0.2,10.7c1.1,4.9,1.6,10.3,5.6,13.9c5.8,6.7,16.9,10.1,24.4,4.3
			c7.3-5.8,9.5-15.7,9.2-24.5c0.2-6.5-1.9-14.1-8.1-17.3c-1.9-1.1-4-1.9-6-2.8c-8.7-1.8-18-4.1-24.4-10.6c-8-9.9-7.5-23.4-7-35.3
			C405.2,441.6,412,427.1,425.1,421.4z"/>
		<path class="st0" d="M302.3,421c13.1,0,26.2,0,39.3,0c0,2.6,0.1,5.3,0.1,7.9c-3.4,0.7-6.9,1.2-10.1,2.5c-1,18.2-0.2,36.4-0.5,54.6
			c0.3,14.4-1.2,29,2.2,43.1c1.6,4.9,5,8.9,9.1,11.9c4.7,1.6,9.7,2.4,14.7,1.9c3.5-1.4,7.4-2.4,10-5.3c2.9-3.3,4.7-7.4,6.5-11.4
			c0.2-3,0.4-6,0.6-8.9l1.1-1c0.4-0.4,1.3-1.2,1.7-1.6c1-23.2,0-46.5,0.5-69.8c-0.2-4.6,0.9-10.6-3.8-13.4c-2.7-2-6.2-1.6-9.3-2.1
			c-0.4-2.7-0.7-5.5-0.9-8.3c10-0.6,19.9-0.1,29.9-0.2c0,2.8-0.1,5.7-0.2,8.5c-2.2,0.5-5,0-6.5,1.9c-2.8,2.2-2.3,6-2.5,9.2
			c-0.2,23.6,0.2,47.2-0.2,70.8c-1.9,3.9-0.8,8.4-1.5,12.6c-1.5,9.6-3.9,19.8-11.1,26.8c-4.4,4.4-9.9,8.2-16.3,8.4
			c-9,0.2-18.8,1.3-26.6-4.1c-9-5.2-13.5-15.5-14.9-25.4c-2.6-32.4,0.1-65-1.9-97.4c-0.7-0.6-2.2-1.9-2.9-2.6
			c-2.2,0-4.4,0.1-6.6,0.1C302.2,427,302.3,424,302.3,421z"/>
		<g>
			<path class="st0" d="M869.8,421.5c3.2,0,6.5,0.1,9.7,0.1c1.5,6.6,3.5,13.1,5.1,19.7c8.2,28.3,15.6,56.8,23.7,85.2
				c2.2,7.2,2.8,15.3,7.7,21.3c1.3,0,4-0.1,5.3-0.1c0,3.1-0.1,6.3-0.2,9.4c-12.9-0.9-25.9-0.8-38.8,0c-0.1-3.1,0-6.1,0.1-9.2
				c2.9-0.2,5.8-0.4,8.7-0.8c0.5-10.4-4.4-20.2-5.8-30.4c-10.3-0.3-20.6-0.1-30.9-0.1c-0.5,2.3-1.1,4.6-1.7,6.9
				c-1.4,6.2-3.2,12.2-4,18.5c-0.7,2,0.7,3.6,2.1,4.9l0.7,0.5c2.6,1.7,4.6,4.2,6,6.9c-9.2,1.2-19-1.9-27.7,1.5l-0.6,0.1
				c-0.5-2.7,0.6-5.4,0.6-8.1c1.2-0.1,3.6-0.2,4.8-0.3c1.1-1,2.2-2.1,3.4-3.1c1.7-5.6,3.2-11.2,5-16.7c2.5-11.3,5.5-22.5,8.8-33.7
				c2.1-9.4,4.4-18.7,7.2-27.9c0.7-3.9,1.8-7.8,2.7-11.6c2.3-7.8,4.2-15.7,6.1-23.6C868.1,427.8,868.9,424.6,869.8,421.5z
				 M869,457.5c-3.5,15.7-7.7,31.2-11.5,46.8c8,0,16,0,24,0c-1.8-7.6-3.5-15.2-5.7-22.7C873.2,473.6,872.2,465.2,869,457.5z"/>
		</g>
		<path class="st0" d="M928.1,421.1c13.3,0,26.6,0,39.9,0c-0.1,2.9-0.2,5.7-0.4,8.6c-2.9,0.2-5.8,0.4-8.7,0.6
			c-0.9,2.9-1.5,5.8-1.4,8.8c0.1,35.3-0.1,70.7,0.1,106.1c9.8-1.2,20.4,1.3,29.6-3c2.8-5.4,2.1-12.5,3.4-18.5c1.8,0,3.5,0.1,5.3,0.2
			c-1,10.9,0.7,22.1-1.3,32.9c-20.7-0.4-41.4-0.2-62.1-0.1c0-1.1,0.1-3.2,0.1-4.3c2-2.1,4.2-4.2,5.6-6.8
			c0.9-35.4,1.3-70.9,0.1-106.3c0.2-3.1-0.5-6.1-1.6-9c-2.8-0.2-5.7-0.3-8.5-0.4C928.2,426.9,928.1,424,928.1,421.1z"/>
		<path class="st0" d="M468.4,569.3c3.5-1.8,7.5-1.2,11.2-1.3c13.4,0.2,26.8-0.3,40.1,0.3c4.1,1.9,8.8,1.2,13.2,1.8
			c9.9,2.4,20.3,3.4,29.5,7.9c20.8,6.5,38.9,19.8,53.8,35.4c7.4,9.5,16.4,18.3,20.1,30c-4.5-2.2-7.7-6.3-11.2-9.7
			c-8.7-8.7-18.6-16.1-29-22.6c-11.7-6.5-24-12-36.8-16c-10.2-2.8-20.7-4.7-30.9-7.3c-8.1,0.1-15.9-2.3-24-2.1
			c-16.3-0.1-32.6-0.3-48.8,0.5c-4.6,2-9.8,1-14.7,1.7c-12.7,2.5-25.8,3.3-38.5,6.3c-2.3,0.3-4.7,0.6-7,0.9
			c-9.4,2.2-19,3.4-28.2,6.2c-10.9,1.7-21.5,4.7-32.2,7.1c-6.3,1.4-12.5,3.1-18.7,4.3c-7.8,2.5-15.9,3.7-23.8,6.1
			c-2.5,0.4-5,0.8-7.3,1.7c-12.1,2.9-24.1,5.8-36.3,8.2c-18.8,4.7-38.1,7.4-57.2,10.6c-22.7,3.2-45.8,4-68.7,2.4
			c4.1-0.3,8.1-0.7,12.2-1.1c-9-0.7-18-1.2-26.9-2.9c7.6-0.3,15.5,0.3,22.8-2.5c4-1.6,8.4-1,12.7-1.2c16.9-0.9,33.7-3.7,50.4-6.3
			c12.7-2.5,25.5-4.8,38.2-7.2c2.3-0.9,4.8-1.3,7.3-1.7c8.4-2,16.9-4,25.3-6.1c12.3-2.2,24.4-5.8,36.5-8.9c1.8-0.3,3.7-0.6,5.5-0.9
			c23.2-6.7,46.9-12,70.5-17.8c11.2-2.2,22.3-5.5,33.6-7.1c15-4,30.6-5.1,45.9-8C460.9,569.8,464.7,569.7,468.4,569.3z"/>
	</g>
	<g>
		<path class="st0" d="M102.8,421c13.8,0,27.5,0,41.3,0c-0.4,2.8,0.5,6-0.9,8.5c-2.6,0.5-5.4,0.1-7.9,1.1c-1.3,3.1-1.6,6.6-1.7,9.9
			c0.1,31.8,0,63.6,0.1,95.4c-0.9,12-0.7,24.3-4.9,35.9c-4.2,9.5-9.5,19-17.9,25.4c-3.6,2.4-8.1,1.7-12.2,1.7
			c-0.4-7-0.4-14.1,0-21.1c3.2,1.6,5.6,4.2,8,6.7c5.5,1.2,7.7-4.4,7.7-8.9c1.4-40.1,0.3-80.2,0.7-120.3c0.3-7.7-0.9-15.4-0.5-23.2
			c-3.4-2.8-7.9-1.9-11.9-3C102.8,426.4,102.8,423.7,102.8,421z"/>
		<path class="st0" d="M725.1,576.2c12.3-3.7,25.1-7.2,38.1-6.6c16.3,0.6,32.7,0.9,49-0.1c5.9-0.1,11.9,0.2,17.7,1.4
			c16.4,1.9,32.7,5.1,49,8.1c8.8,2.3,17.8,4.1,26.7,6c1.9,0.5,3.9,1,5.8,1.6c21.6,4.9,43.1,10.2,64.5,16.1
			c11.8,2.9,23.7,5.5,35.4,8.9c1.8,0.3,3.6,0.6,5.4,0.9c2.4,0.8,4.9,1.3,7.4,1.7c10.7,2.6,21.4,5.3,32.2,7.2
			c10.3,2.7,20.9,3.7,31.2,6.2c6.3,0.3,12.3,2.3,18.6,2.7c9,1.9,18.3,2.3,27.4,3.4c6,0.8,12.3-0.7,18.1,1.5c7.4,2.7,15.3,1.9,23,2
			c-1.1,0.9-2.3,1.9-3.4,2.8c-12.9,2.9-26.2,2.1-39.3,2.2c-14.1,0.5-28.1-1.4-42-3c-3-0.4-6-0.6-8.8-1.8c-2.8-0.3-5.6-0.5-8.4-0.8
			c-23.7-4.1-47.3-9.4-70.6-15c-12.3-2.8-24.4-5.9-36.6-8.8c-12.2-3.1-24.4-5.9-36.7-8.8c-4.3-1-8.5-2.1-12.9-2.7
			c-6.4-1.8-13.2-2.4-19.6-4.6c-3-0.2-6-0.4-8.7-1.6c-2.3-0.3-4.6-0.6-6.8-0.9c-13.4-2.7-27-4.5-40.5-6.4c-4.2-0.7-8.8,0.4-12.7-1.6
			c-19.4-0.6-38.8-0.9-58.1,0.1c-4.4,2-9.4,0.9-14.1,1.9c-6.7,1.5-13.5,2.4-20,4.4c-3.8,0.9-7.6,2-11.5,2.7
			c-17.2,5.9-33.9,13.8-48.7,24.6c-5.3,3.5-9.5,8.4-14.5,12.2c-4.6,3.5-7.9,8.3-12.5,11.7c1.8-8.4,7.6-15,12.7-21.7
			c7.8-10.3,17.1-19.3,27.7-26.8c9.7-7.5,20.9-12.8,32.4-17C722.2,577.4,723.6,576.8,725.1,576.2z"/>
	</g>
	<g>
		<path class="st0" d="M150.4,421.1c21.9-0.1,43.7-0.1,65.6,0c-0.2,3,0.1,6.1-1.3,8.9c-0.2,7-0.5,14.1-0.5,21.1
			c-1.9,0.1-3.8,0.2-5.7,0.2c0.1-5.5,0-11-1.2-16.4c-8.6-2.9-17.8-0.9-26.7-1.4c-0.1,7.9,0.2,15.9-0.2,23.8
			c-2.4,7.1-0.5,14.9-1.1,22.3c6.8-0.1,13.7,0.3,20.6-0.2c3.8-3.2,1.7-9.6,3-14.1c1.9,0,3.8,0,5.8,0.1c-0.1,14.2,0.2,28.5-0.2,42.7
			c-2.2,0-4.3,0-6.4,0c-0.3-5.4,1.2-11.6-2.6-16.1c-6.7-0.1-13.4-0.1-20.1-0.1c0.1,9.8-0.3,19.6,0.1,29.4c0.2,0.6,0.7,1.9,0.9,2.6
			c0.4,7.1-0.1,14.3,0.4,21.4c7.5-0.4,14.9-0.5,22.4-0.7c2.3-1,5.1-0.9,7.1-2.4c2.1-5.9,2.2-12.3,2.8-18.4c1.9,0,3.8,0,5.6,0
			c-1,11.1-0.4,22.3-1.2,33.4c-13.2-1-26.5-0.2-39.7-0.4c-7.4,0.2-14.8-0.5-22.1,0.5c0-1.8,0-3.6,0-5.3c1.9-1.9,4-3.8,5.3-6.1
			c0.5-7.3-0.3-14.6,0.5-21.9c0.4,7.7,0.6,15.3,0.9,23c1.5-23.1,1-46.2,1.2-69.3c0-14.3,0.4-28.6-1.1-42.8c-0.4,5.6-0.8,11.2-1,16.7
			c-0.6-5.6-0.3-11.3-0.3-17c-0.5-1-1.4-3-1.9-4c-2.8-0.3-5.5-0.5-8.3-0.6C150.7,426.9,150.5,424,150.4,421.1z"/>
	</g>
	<g>
		<path class="st0" d="M991.3,421c13.7,0,27.3,0,41,0c0,2.7,0,5.4,0,8.1c-3.5,0.6-7.1,0.6-10.2,2.5c0.1,1.7,0.3,3.3,0.5,5
			c2.2,8.3,3.8,16.8,6.2,25.2c5.2,19.6,9.9,39.3,15.3,58.8c0.8-2.6,1.5-5.2,2.4-7.8c0.3-1.4,0.6-2.8,0.9-4.1
			c2.4-9.8,5-19.5,7.2-29.3c3.8-12.5,6.3-25.4,9.4-38.2c1-3.6,0.9-7.4,0.6-11.1c-3-0.2-6-0.4-9-0.4c0-2.9-0.1-5.8-0.1-8.7
			c9.5,0,19.1,0,28.6,0c0,2.8,0,5.6,0,8.4c-2.9,0.7-6.7,1-7.7,4.3c-2.3,5.7-3.9,11.7-5.2,17.8c-6.3,21.9-11.6,44-17.6,66
			c-2.7,10.3-5,20.7-7.8,30.9c-0.5,3-1.1,6-2.2,8.9c-3.3-0.1-6.6-0.1-9.9-0.1c-1.9-6.3-3.5-12.7-5-19.1c-3.3-11.2-6-22.5-8.8-33.7
			c-3.2-11.2-6.1-22.4-8.8-33.7c-2.3-7.3-3.8-14.9-6.2-22.2c-0.3-1.4-0.6-2.7-0.9-4.1c-1.5-4.6-2.7-9.4-4.7-13.9
			c-2.7-0.5-5.5-0.9-8.2-1.4C991.2,426.5,991.2,423.8,991.3,421z"/>
		<g>
			<path class="st0" d="M1116.5,421.5c3.3,0,6.6,0,9.9,0c10.8,39.4,21.7,78.7,32.4,118c1,2.9,2.2,5.7,3.9,8.2
				c1.9-0.1,3.8-0.1,5.7-0.2c0,3,0.1,6.1,0.2,9.1c-13.3-0.3-26.5-0.2-39.8-0.1c0.1-2.8-0.3-5.7,0.6-8.4c2.2-0.8,4.5-0.6,6.8-0.8
				c1-1.1,1.9-2.2,2.9-3.3c-0.3-0.4-1-1.3-1.3-1.8c-1.3-8.8-3.8-17.3-6.1-25.8c-10.1-0.1-20.2,0-30.3,0c-1.3,5.2-2.9,10.3-3.8,15.6
				c-1.2,3.8-1.4,7.9-2.6,11.8c2,4,6.3,3.9,10.2,3.9c0,3.1,0,6.2,0.1,9.3c-9.7-1.2-19.6-0.5-29.4-0.4c0.1-2.8,0.2-5.6,0.4-8.4
				c3.2-0.9,7.6-1.3,8.6-5.1c4.3-13.3,7.3-26.9,11.1-40.3c3.1-11.2,5.5-22.6,8.9-33.7C1108.5,453.2,1113.6,437.6,1116.5,421.5z
				 M1116.1,458.2c-0.8,3.1-1.6,6.3-2.3,9.4c-0.6,1.9-1.2,3.9-1.7,5.9c-2.3,10.4-5.3,20.5-7.4,30.9c8-0.4,16-0.1,24-0.2
				c-2.1-7.7-3.8-15.5-6-23.1c-2.3-7.5-3.8-15.3-5.8-22.9H1116.1z"/>
		</g>
	</g>
	<g>
		<path class="st0" d="M373.7,431.6c4.7,2.8,3.6,8.7,3.8,13.4c-0.5,23.2,0.5,46.5-0.5,69.8c-0.4,0.4-1.3,1.2-1.7,1.6
			c0.1-26.9,0.2-53.8,0-80.6C374.9,434.7,374.1,432.7,373.7,431.6z"/>
	</g>
	<g>
		<path class="st0" d="M162.4,434.5c1.5,14.2,1.1,28.5,1.1,42.8c-0.2,23.1,0.4,46.3-1.2,69.3c-0.3-7.7-0.5-15.3-0.9-23
			c0.1-24.1,0.1-48.3,0-72.4C161.6,445.7,162,440.1,162.4,434.5z"/>
	</g>
	<g>
		<path class="st0" d="M616.3,480.3c7.4,2,15.3,1.9,22.7,4.1c20.1,1.2,40.3,3.4,60.5,1.9c4.7-0.5,9.6,0.4,14.2-1.2
			c5.8-0.7,12,0.5,17.6-1.6c5.9-0.3,11.6-1.5,17.5-1.9c-4.3,3.1-9.6,3.2-14.6,3.6c-18.9,2.8-38,5.3-57.1,5.6
			c-4.5,1.8-9.5,0.8-14.2,1c-9.2-0.3-18.5,0.8-27.6-1c-6.8-0.9-13.9,0.3-20.6-1.7c0.1-1.7,0.2-3.4,0.3-5.1
			C615.2,483,615.9,481.2,616.3,480.3z"/>
	</g>
	<g>
		<path class="st0" d="M231.9,516.8c1.8,0,3.6,0,5.4,0c0,3.7,0,7.4,0.1,11.2c-1.9,0.3-3.8,0.6-5.7,1
			C231.8,524.9,231.8,520.9,231.9,516.8z"/>
	</g>
	<g>
		<path class="st0" d="M857.3,554.3c-1.4-2.8-3.4-5.2-6-6.9c2.2,0.1,4.3,0.2,6.5,0.3c0,3,0,6-0.1,9c-9.4-0.7-19,0.8-28.2-0.9
			C838.3,552.4,848.1,555.5,857.3,554.3z"/>
	</g>
	<g>
		<path class="st0" d="M761.6,568.4c17.5-0.4,35.1-0.6,52.6,0.1l-2,1c-16.3,1-32.7,0.8-49,0.1L761.6,568.4z"/>
	</g>
	<g>
		<path class="st0" d="M432.8,627.9c12.6-2,25.4-2.9,38.2-4c15.1-0.1,30.2-0.1,45.3,0c27.2,2.7,54.3,11.5,76.5,27.7
			c4.4,3.4,9.4,6.2,12.3,11c-9.5-5.1-18-11.9-28-16c-7.9-2.6-15.4-6.6-23.5-8.5c-1.4-0.6-2.8-1.1-4.2-1.7
			c-9.7-2.9-19.8-4.1-29.6-6.2c-5.4-0.9-11.2,0.6-16.2-1.8c-9.1-0.3-18.2-0.3-27.3,0c-8.4,2.9-17.6,0.7-26.4,1.7
			c-6.5,1.7-13.5,1.4-20.2,1.5c-3.3-0.7-6.5-1.5-9.8-2.1C423.7,627.1,428.5,628.6,432.8,627.9z"/>
	</g>
	<g>
		<path class="st0" d="M738.5,628.6c11.4-2.1,22.7-5.2,34.4-4.9c14.1,0.1,28.3-0.1,42.4,0.1c14.4,1.4,28.9,2.6,43.3,4.5
			c1.7,0.6,3.3,1.2,5,1.9c-2.7,0.5-5.4,1-8.1,1.5c-9.5,0.6-18.9-1.6-28.4-1.8c-6.2-0.7-12.9,1.1-18.7-1.5
			c-10.8,0.1-21.9-1.2-32.5,1.1c-14.2,0.6-28.3,3.1-42,6.9c-16,5-32.2,10.3-46.5,19.3c-3.8,2.2-7.3,4.9-11.4,6.6
			c3.2-4.8,8.3-7.7,12.8-11.1c8.6-6,17.9-11,27.6-15C723.4,632.9,731,631.1,738.5,628.6z"/>
	</g>
	<g>
		<path class="st0" d="M858.6,628.4c2.5,0,5.3-0.5,7.6,1.1c12.9,1.2,25.7,3.3,38.6,5c4.7,1,9.7,0.4,14.2,2.2c3.9,0.4,8-0.2,11.7,1.6
			c3.3,0.4,6.5,0.6,9.8,0.9c12.2,2.9,25.2,2.6,37.1,6.6c-10.1,1.3-20.1-1.4-30.2-2.1c-14-2.3-28.4-2.7-42.1-6.2
			c-4.2-0.3-8.4-0.4-12.6-0.7c-12.7-2.7-25.9-3.1-38.8-4.6l1.7-0.4c2.7-0.5,5.4-1,8.1-1.5C861.9,629.6,860.2,629,858.6,628.4z"/>
	</g>
	<g>
		<path class="st0" d="M392.1,633c9.3-0.9,18.5-3.3,27.8-3.3c3.3,0.6,6.5,1.4,9.8,2.1l1.7,0.4c-16.5,1.4-32.8,4-49.3,5.4
			c-17.9,3.8-36.4,4.7-54.3,7.9c-5.4,0.3-10.7,0.7-16.1,0.2c2.3-1.7,5.3-1.6,8-2.1c12.4-2.2,24.9-4,37.4-5.5
			c3.6-1.8,7.8-1.1,11.6-1.5C376.3,634.4,384.4,634.6,392.1,633z"/>
	</g>
	<g>
		<path class="st0" d="M89.4,636.1c4.1-2.8,9-2.1,13.6-1.2c9.4,0.6,18.8-0.1,28.2,0.3c-7.3,2.8-15.2,2.2-22.8,2.5
			c8.9,1.7,17.9,2.2,26.9,2.9c-4.1,0.4-8.1,0.8-12.2,1.1c-7.7-0.1-15.2-2.4-22.9-3C96.5,638.4,93,637,89.4,636.1z"/>
	</g>
	<g>
		<path class="st0" d="M1178.5,634.9c4.5-0.9,9.2-0.8,13.6,0.4l-0.1,1.3c-2.3,0.4-4.6,0.7-6.8,1.7c-4.7,0.4-9.4,1.1-14.1,1.8
			c1.1-0.9,2.3-1.8,3.4-2.8c-7.7-0.1-15.6,0.6-23-2C1160.6,634.7,1169.5,635.6,1178.5,634.9z"/>
	</g>
	<g>
		<path class="st0" d="M383.4,654.3c10.7-2.8,22.1-0.2,33-2.4c17.6-0.5,35.3-0.1,53-0.2c5.5,0.2,11.1-0.5,16.6,0.5l2.1,0.5
			c3.6,0.6,7.4,0.4,11.1,0.4c18.9,2.3,37.7,5.3,55.9,10.9c15.6,5.5,31.4,9.8,47.1,15c1.4,0.3,2.8,0.5,4.1,0.9
			c14.8,5.7,31,7.9,46.8,6.3c41.5-8.7,80.5-27.7,123.1-32.1c6.1-2,12.6-1.3,18.9-1.3c23.4,0.8,46.8,0.3,70.2,0.1
			c10.1-0.1,20.4-0.7,30.4,1.4c5.6,0.6,11.2,0.3,16.8,0.7c5.2,1.9,10.9,1,16.3,1.8c13.6,1.8,27.4,2.1,40.9,4.6
			c2.5,0.8,5.1,0.8,7.7,0.6c3.5-0.2,7.1-0.4,10.4,1.1c23.7,1.9,47.3,5,71.1,6.5c4.4,1.6,9.1,1.2,13.6,1.1c5.2-0.5,10.2,1.1,15.3,1.6
			c13.7,0.1,27.3,2.2,41.1,2.1c10.3,1.6,20.7,0.1,31,1.2c7.3,0.8,14.7,0.1,22.1,0.5c16.5,2.6,33.1-0.5,49.7-0.3
			c-12.9,2.4-25.8,4.4-38.7,6c2.3,0.4,4.6,0.7,7,1c-11.4,1.5-22.9,2.3-34.4,2.9c-20.4,1.9-41,0.6-61.4,1
			c-13.8,0.6-27.4-1.7-41.2-1.7c-10.2,0.2-20.3-1.5-30.5-1.9c-5.2-0.4-10.5,0-15.7-1c-6.8-1.2-13.8-0.1-20.5-1.8
			c-6.4-1-13-0.3-19.5-1.1c-8.3-1.5-16.7-1.1-25-1.6c-14.7-1.7-29.6-1.8-44.4-2.5c-8.7-1.3-17.5-0.5-26.2-0.7
			c-26.9-1.3-53.7,0.3-80.4,2.3c-7.1,1.4-14.5,0.8-21.6,2.6c-4,0.4-8,0.5-11.8,1.7c-11.8,1.3-23.4,4.3-35,6.3l-1.1,0.8
			c-4,0.6-7.9,1.6-11.8,2.6c-21,5.1-41.3,12.7-62.4,17c-11.9,0.3-24.1,1.2-36-0.9c-1.9-0.6-3.9-1.1-5.7-1.7
			c-8.4-2.3-16.9-4.2-25-7.3c-1.4-0.3-2.7-0.5-4-0.8c-11.1-3.7-22.6-6.3-33.9-9c-9.7-2.6-19.7-4-29.5-6.1c-6.9-1-13.8-1.8-20.5-3.2
			c-23.3-2.2-46.7-4.3-70.1-4.6c7.6-0.3,15.3-0.4,22.9-1c-12.3-1.7-24.6-0.8-37-1.1c-11.9,0.3-24-0.5-35.9,1
			c6.7,0.5,13.4,0.9,20.2,1.1c-31.2,0.5-62.3,3.3-93.4,4.5c-7.1,1.9-14.6,0.7-21.9,1.7c-15.1-1.2-30.3,0.4-45.3,1.5
			c3.7,0.5,7.4,0.9,11.2,1.1c-12.9,0.8-25.7,2.2-38.6,2.2c-30.4,2.6-60.9,1.5-91.5,1.5l0.9-1.1c0.3-0.4,0.9-1.1,1.2-1.4
			c-11.7-1.3-23.5-1-35.2-2.7c-9.3-1.4-18.9-1.1-28-3.9c10.7-0.9,21.4,0,32.1-1.3c12.9-0.3,25.7,0.2,38.6-0.2
			c9.7-1.3,19.6,0.1,29.3-1.4c13.8-0.1,27.4-2,41.2-2.4c7.4-2.1,15.2-0.9,22.8-1.9c13.1-2,26.5-2.1,39.5-4.4
			c4.9-0.7,10-0.1,14.7-1.8c4.7-0.3,9.5-0.2,14.2-0.7c5-2.2,10.7-0.8,16-2c16.5-1.6,33-3.6,49.6-4.7c2.7-0.2,5.5-0.4,8.1-1.4
			C372.9,654.8,378.2,654.8,383.4,654.3z"/>
	</g>
	<g>
		<path class="st0" d="M795.2,652.8c0.9-0.3,2.8-0.8,3.7-1.1c22.1-0.2,44.3,0,66.4-0.1l0,1.2C841.9,653.1,818.5,653.6,795.2,652.8z"
			/>
	</g>
	<g>
		<path class="st0" d="M40.7,675.4c2.2-4.5,7.9-3.2,11.9-2.1c13.7,1.2,27.5,1.2,41.2,2.6c-10.7,1.3-21.4,0.4-32.1,1.3
			c9.1,2.8,18.7,2.4,28,3.9c11.7,1.7,23.5,1.4,35.2,2.7c-0.3,0.4-0.9,1.1-1.2,1.4c-7,0.8-13.9-0.5-20.9-0.6
			C81.9,682.9,61,680.4,40.7,675.4z"/>
		<path class="st0" d="M29.9,719.8c1.7,0,3.3,0,5,0c0.2,10-0.2,20,0.2,30c-0.3,8.3,10.8,11.5,17.1,8c3.6-1.6,5.3-5.6,5.2-9.3
			c0.2-9.6-0.1-19.2,0.1-28.7c1.7,0,3.4,0,5.2,0.1c-0.3,11,0.8,22.1-0.8,33c-3.2,14.5-28.6,14.2-31.7-0.1
			C29.5,741.8,30,730.8,29.9,719.8z"/>
		<g>
			<path class="st0" d="M484.6,762.5c0-14.2,0-28.5,0-42.7c7.9,0.2,16.1-0.8,23.9,1.3c7.1,2,9.8,11.8,4.7,17.1c-3.5,4-9.1,4.3-14,5
				c5.8,6.5,11.8,12.9,17.5,19.5c-2.2-0.2-4.5,0.3-6.6-0.5c-7.1-6.2-11.9-15-19.9-20.2c-0.5,6.8-0.2,13.7-0.3,20.6
				C488.2,762.6,486.4,762.5,484.6,762.5z M490,724c-0.1,4.7-0.1,9.4-0.1,14.1c5.3-0.1,10.7,0.5,16-0.5c5.2-1.6,6.2-9.7,1-12
				C501.6,723.5,495.7,724.2,490,724z"/>
		</g>
		<g>
			<path class="st0" d="M1051.8,762.6c0-14.2-0.1-28.5,0-42.7c7.9,0.4,16.2-0.8,23.9,1.4c7.6,2.2,9.6,13.6,3.3,18.2
				c-6.4,4.6-14.8,3-22.1,3.5c0,6.6,0,13.1,0,19.7C1055.1,762.6,1053.5,762.6,1051.8,762.6z M1056.9,724.1c0,4.6,0,9.3,0,14
				c5.3-0.1,10.6,0.5,15.9-0.5c5.2-1.5,6.3-9.1,1.5-11.9C1068.8,723.4,1062.7,724.3,1056.9,724.1z"/>
		</g>
	</g>
	<g>
		<path class="st0" d="M382.2,672.8c11.9-1.6,23.9-0.8,35.9-1c12.3,0.3,24.7-0.5,37,1.1c-7.6,0.5-15.3,0.7-22.9,1
			c-9.9-0.1-19.8-0.1-29.7,0C395.7,673.7,388.9,673.3,382.2,672.8z"/>
	</g>
	<g>
		<path class="st0" d="M1230.1,673.2c4.6-0.9,9.3-1.1,14-0.9c2,0.4,4.1,0.8,6.1,1.2c-10.5,3.3-21.5,4.8-32.3,6.5
			c-3.3,1.3-6.8,1.1-10.2,1.6c-2.5,0.9-5.1,1.3-7.7,1c-2.4-0.3-4.7-0.6-7-1c13-1.6,25.9-3.6,38.7-6c-16.6-0.1-33.2,3-49.7,0.3
			c8.6-1.9,17.5-0.1,26.2-1.1C1215.4,673.7,1222.8,674.2,1230.1,673.2z"/>
	</g>
	<g>
		<path class="st0" d="M241.7,681.6c15.1-1.1,30.2-2.6,45.3-1.5c-6.6,2-13.7,0.4-20.5,1.7c-4.5,1-9.1,1-13.7,0.9
			C249.2,682.4,245.4,682,241.7,681.6z"/>
	</g>
	<g>
		<path class="st0" d="M176.4,719.8c1.8,0,3.5,0,5.3,0c0.1,10-0.2,20.1,0.1,30.1c-0.3,11.6,20,12.6,21.9,1.6
			c0.6-10.6,0-21.1,0.4-31.7c1.7,0,3.4,0,5.1,0c-0.1,10.1,0.3,20.2-0.2,30.3c0,6.7-5.8,12.5-12.3,13.2c-6.1,0.7-13.1-0.1-17.4-5
			c-2.7-3.1-2.8-7.3-2.9-11.2C176.4,738,176.4,728.9,176.4,719.8z"/>
	</g>
	<g>
		<path class="st0" d="M227.4,724.8c12.2-9.4,30.4-7.5,42,2.1c-1,0.8-3.1,2.5-4.1,3.4c-9.3-8-24.3-9.6-34.2-1.9
			c-6.2,4.6-8.5,14-4.1,20.6c5.6,9.3,18.1,12,28,9.2c5.4-1.8,10.2-6,11.4-11.8c-5.2-0.1-10.4-0.1-15.6-0.1c0-1.1,0.1-3.2,0.1-4.3
			c7.2,0,14.4,0,21.7,0c-0.8,5.2-1.8,10.9-5.9,14.6c-6.2,6.5-15.8,7.4-24.3,6.5c-9.5-0.7-18.9-6.8-22-16
			C217.4,739.1,220.7,729.9,227.4,724.8z"/>
		<g>
			<path class="st0" d="M877.3,762.6c8-14.6,15.7-29.4,24.2-43.7c8.1,14.4,15.8,29,23.7,43.5c-1.8,0-3.6,0.1-5.5,0.2
				c-2.7-4.7-5.3-9.4-8-14.1c-7.1,0-14.1-0.1-21.2,0.1c-2.4,4.7-5,9.2-7.5,13.9C881.2,762.5,879.3,762.6,877.3,762.6z M893.2,744.3
				c5.4-0.1,10.8,0,16.3-0.1c-2.5-5.1-5.2-10-8-14.8C898.6,734.3,895.9,739.3,893.2,744.3z"/>
		</g>
	</g>
	<g>
		<path class="st0" d="M592.3,719.9c1.9,0,3.8,0,5.7-0.1c5.3,10.9,10.8,21.6,16.2,32.5c5.8-10.8,10.9-21.9,16.8-32.6
			c1.8,0,3.6,0.1,5.4,0.2c-7.5,14.5-14.6,29.1-22.2,43.5C606.6,749.1,599.5,734.5,592.3,719.9z"/>
	</g>
	<g>
		<g>
			<path class="st0" d="M661.6,719.4c9.5-2.1,20.4,0.3,27.2,7.6c4.4,4.4,6.5,10.9,5.5,17c-1,7.9-7.1,14.2-14.2,17.3
				c-13.4,5.6-32.6,0.6-37.2-14.4C639.1,734.3,649.2,721.5,661.6,719.4z M660.5,724.4c-9.1,2.8-15.6,13.1-12,22.4
				c5.2,13.7,25.3,16.3,35.3,6.4c6.3-5.7,7.1-16.3,1.4-22.7C679.4,723.4,669,722.2,660.5,724.4z"/>
		</g>
	</g>
	<g>
		<path class="st0" d="M704,719.8c1.7,0,3.5,0.1,5.2,0.1c0.1,12.8,0,25.7,0,38.5c6.3,0,12.7,0,19,0c0,1.4,0,2.8,0.1,4.2
			c-8.1,0.1-16.3,0-24.4,0C703.9,748.3,703.7,734,704,719.8z"/>
	</g>
	<g>
		<path class="st0" d="M732.1,719.8c1.8,0,3.6,0,5.5,0c5.8,10.5,10.2,21.8,16.6,31.9c5.8-10.5,10.8-21.3,16.4-31.9
			c1.9,0,3.8,0.1,5.7,0.2c-7.7,14.4-14.4,29.2-22.4,43.4C746.4,748.9,739.3,734.3,732.1,719.8z"/>
	</g>
	<g>
		<path class="st0" d="M1127.3,719.9c8.8-0.1,17.7-0.1,26.5,0c-6.8,12.7-13.7,25.4-20.6,38.1c6.6,0,13.1,0,19.7,0
			c-0.1,1.1-0.3,3.2-0.4,4.3c-9.1,0.5-18.3,0-27.5,0.2c7-13,14.2-25.9,21.1-39c-6.2,0.9-12.5,0.4-18.7,0.5
			C1127.3,723,1127.3,720.9,1127.3,719.9z"/>
	</g>
	<g>
		<path class="st0" d="M144.5,762.6c0-14.3-0.1-28.6,0-42.9c1.2,0.2,3.6,0.6,4.7,0.8c0.6,12.6,0.1,25.2,0.2,37.9
			c6.3,0.2,12.6,0.1,19,0.1c0,1,0,3.1,0.1,4.2C160.6,762.6,152.5,762.6,144.5,762.6z"/>
	</g>
	<g>
		<g>
			<path class="st0" d="M276.7,762.6c8-14.5,15.9-29.2,24.1-43.7c8.3,14.3,16,28.9,23.8,43.5c-1.8,0-3.6,0.1-5.4,0.1
				c-2.6-4.7-5.2-9.4-7.8-14.1c-6.9,0.1-13.8-0.3-20.7,0.2c-3.4,4.1-5.4,9.2-8,13.8C280.7,762.6,278.7,762.6,276.7,762.6z
				 M292.7,744.2c5.4,0.1,10.8,0.1,16.3,0c-2.5-5-5.3-9.9-8.1-14.8C298,734.3,295.4,739.3,292.7,744.2z"/>
		</g>
	</g>
	<g>
		<g>
			<path class="st0" d="M332.6,719.9c7.8,0.2,15.8-0.7,23.5,1.2c6.8,1.8,9.7,10.8,5.5,16.4c-3.3,4.6-9.6,5-14.7,5.7
				c5.9,6.5,11.9,12.8,17.5,19.5c-2.8-0.3-6.4,0.7-8.3-2.1c-6.3-5.9-10.7-14.2-18.4-18.5c-0.4,6.8-0.1,13.6-0.2,20.5
				c-1.7,0-3.3,0-5,0C332.6,748.3,332.5,734.1,332.6,719.9z M337.6,724c-0.1,4.7-0.1,9.4-0.1,14.1c5.6-0.2,11.4,0.8,16.8-0.9
				c3.8-1.5,3.7-5.8,3.6-9.1C352.5,722.7,344.4,724.3,337.6,724z"/>
		</g>
	</g>
	<g>
		<g>
			<path class="st0" d="M393.1,719.9c8,0.3,16.3-0.9,24.1,1.5c7.2,2.4,9.1,13,3.4,17.8c-6.4,4.8-15,3.4-22.5,3.8
				c0,6.6,0,13.1,0,19.7c-1.2,0-3.7,0-5,0C393.1,748.3,393,734.1,393.1,719.9z M398,724.1c0,4.7,0,9.3,0,14
				c5.4-0.2,11.1,0.7,16.4-0.7c5.1-1.8,5.4-9.9,0.4-11.9C409.4,723.5,403.6,724.2,398,724.1z"/>
		</g>
	</g>
	<g>
		<g>
			<path class="st0" d="M429.1,762.5c8-14.6,15.8-29.2,24.1-43.6c8.3,14.3,15.9,29,23.8,43.5c-1.8,0.1-3.7,0.1-5.5,0.2
				c-2.6-4.7-5.2-9.4-7.9-14.1c-6.9,0.3-13.9-0.5-20.8,0.1c-3.1,4.4-5.3,9.3-7.9,13.9C433,762.6,431,762.5,429.1,762.5z M445,744.2
				c5.4,0,10.7,0.1,16,0c-2.2-5.1-5-9.9-7.8-14.7C450.4,734.3,447.7,739.3,445,744.2z"/>
		</g>
	</g>
	<g>
		<g>
			<path class="st0" d="M521.7,762.4c8-14.5,15.7-29.1,24.1-43.4c8.3,14.3,16,29,23.8,43.5c-1.9,0-3.7,0.1-5.6,0.1
				c-2.6-4.8-5.2-9.6-8-14.2c-6.9,0.4-13.8-0.2-20.6,0.4c-3.1,4.4-5.3,9.3-8,13.9C525.5,762.6,523.6,762.5,521.7,762.4z
				 M537.9,744.2c5.4,0.1,10.7,0,16.1,0c-2.7-4.9-5.3-9.8-8-14.7C542.9,734.2,540.2,739.1,537.9,744.2z"/>
		</g>
	</g>
	<g>
		<g>
			<path class="st0" d="M821.4,719.9c6.7,0,13.4-0.2,20.1,0.4c6,0.5,11.9,5.7,10.7,12.1c-0.3,8.2-9.8,10.6-16.5,10.7
				c6,6.3,11.7,13,17.5,19.4c-2.2,0-4.4,0-6.5,0c-4.9-5.8-10.3-11.2-15.3-17c-1.2-1.7-3.2-2.6-5-3.4c-0.2,6.8-0.1,13.5-0.1,20.3
				c-1.7,0-3.3,0.1-4.9,0.1C821.3,748.4,821.4,734.1,821.4,719.9z M826.4,724.1c0,4.6,0,9.3-0.1,14c5.1-0.1,10.2,0.4,15.3-0.3
				c5.2-0.9,7.4-8.2,3-11.4C839.2,723,832.4,724.3,826.4,724.1z"/>
		</g>
	</g>
	<g>
		<path class="st0" d="M951.5,719.9c9.5-0.1,19.1,0,28.6,0c0,1.1,0,3.2,0,4.2c-7.7,0-15.4,0-23.1,0.1c0,4.4,0,8.7,0,13.1
			c7.6,0,15.3,0,22.9,0c0,1,0,3.2,0,4.2c-7.7,0-15.3-0.1-22.9,0.1c0,5.5,0,11,0,16.5c7.6,0,15.3,0,22.9,0c0,1.1,0,3.4,0,4.5
			c-9.4,0-18.8,0-28.3,0C951.5,748.3,951.5,734.1,951.5,719.9z"/>
	</g>
	<g>
		<path class="st0" d="M986.6,762.5c1.8-14.5,4.3-29,7.1-43.4c7.2,11.6,13.7,23.6,20.6,35.4c6.8-11.7,13.3-23.7,20.3-35.3
			c3.2,14.3,5.1,28.9,7.6,43.4c-1.3,0-4-0.1-5.3-0.1c-1.2-10-3-19.9-4.7-29.8c-6.1,10.1-11.7,20.5-17.9,30.6
			c-6.6-10.2-12.4-20.9-18.4-31.5c-1.3,10.3-3.2,20.5-4.7,30.7C990.1,762.6,987.8,762.5,986.6,762.5z"/>
	</g>
	<g>
		<path class="st0" d="M1092.6,719.8c9.5,0,19,0,28.5,0c0,1.1,0,3.2,0,4.2c-7.7,0-15.4,0-23.2,0c0,4.4,0,8.7,0,13.1
			c0,1.1,0,3.2,0,4.2c0,5.5,0,11,0,16.5c7.6,0.1,15.3,0,22.9,0c0,1.1,0,3.3,0,4.5c-9.4,0.1-18.8,0-28.2,0
			C1092.6,748.3,1092.5,734.1,1092.6,719.8z"/>
	</g>
	<g>
		<g>
			<path class="st0" d="M1157.9,762.4c8-14.5,15.7-29.2,24.1-43.5c8.3,14.3,16,29,23.8,43.5c-1.9,0-3.8,0-5.6,0.1
				c-2.5-4.6-4.8-9.3-7.6-13.6c-6.9-0.9-14-0.7-20.9-0.4c-3.2,4.4-5.3,9.4-8,14C1161.7,762.6,1159.8,762.5,1157.9,762.4z
				 M1173.8,744.3c5.4,0,10.8,0,16.3,0c-2.6-5-5.4-10-8.2-14.9C1179.1,734.3,1176.4,739.2,1173.8,744.3z"/>
		</g>
	</g>
	<g>
		<g>
			<path class="st0" d="M1213.5,719.8c7.8,0.2,15.9-0.7,23.6,1.2c6.4,1.8,9.6,9.9,6.2,15.6c-3.1,5.3-9.9,5.8-15.3,6.4
				c5.8,6.6,11.9,12.8,17.5,19.6c-2.2-0.2-4.5,0.1-6.6-0.5c-7.2-6.1-11.7-15.3-19.9-20.1c-0.4,6.8-0.2,13.6-0.2,20.3
				c-1.8,0-3.5,0.1-5.2,0.1C1213.4,748.3,1213.5,734.1,1213.5,719.8z M1218.7,724.1c0,4.7,0,9.4,0,14.1c5.2-0.1,10.4,0.4,15.6-0.4
				c5.1-1.2,6.8-8.7,2.3-11.6C1231,723.2,1224.6,724.3,1218.7,724.1z"/>
		</g>
	</g>
	<g>
		<path class="st0" d="M1097.9,737.2c7.7,0,15.3,0,23,0c0,1.1-0.1,3.2-0.1,4.2c-7.6,0-15.2,0-22.9,0
			C1097.9,740.4,1097.9,738.3,1097.9,737.2z"/>
	</g>
</g>
</svg>
